<svg width="659" height="587" viewBox="0 0 659 587" fill="none" xmlns="http://www.w3.org/2000/svg">
<path d="M499.146 40.1597C499.163 40.1597 499.177 40.1691 499.177 40.1822C499.177 40.1954 499.164 40.206 499.148 40.206C499.132 40.2067 499.117 40.196 499.117 40.1835C499.117 40.1709 499.13 40.1597 499.146 40.1597Z" fill="#B24BF3"/>
<path d="M520.825 40.4488C520.841 40.4495 520.854 40.4607 520.854 40.4739C520.853 40.4864 520.839 40.4958 520.822 40.4952C520.805 40.4946 520.793 40.4833 520.793 40.4708C520.795 40.4576 520.808 40.4476 520.825 40.4488Z" fill="#B24BF3"/>
<path d="M542.347 42.4672C542.364 42.4697 542.375 42.4816 542.373 42.4942C542.371 42.5067 542.356 42.5155 542.339 42.513C542.323 42.5105 542.312 42.4986 542.314 42.486C542.316 42.4735 542.331 42.4647 542.347 42.4672Z" fill="#B24BF3"/>
<path d="M563.48 46.2036C563.497 46.2067 563.506 46.2199 563.503 46.2331C563.499 46.2456 563.483 46.2531 563.467 46.2494C563.451 46.2462 563.441 46.2331 563.445 46.2199C563.448 46.2074 563.464 46.1998 563.48 46.2036Z" fill="#B24BF3"/>
<path d="M584.004 51.6115C584.035 51.6215 584.052 51.6498 584.043 51.6754C584.034 51.7005 584 51.7137 583.97 51.7043C583.939 51.6942 583.922 51.666 583.932 51.6404C583.941 51.6147 583.974 51.6021 584.004 51.6115Z" fill="#B24BF3"/>
<path d="M603.681 58.706C603.71 58.7179 603.724 58.7486 603.712 58.7743C603.7 58.7994 603.666 58.8107 603.637 58.7988C603.608 58.7869 603.594 58.7555 603.606 58.7305C603.618 58.7048 603.652 58.6941 603.681 58.706Z" fill="#B24BF3"/>
<path d="M622.315 67.4003C622.356 67.4222 622.372 67.4711 622.35 67.5094C622.328 67.5482 622.277 67.5614 622.236 67.5401C622.194 67.5181 622.179 67.4692 622.2 67.4304C622.222 67.3922 622.273 67.379 622.315 67.4003Z" fill="#B24BF3"/>
<path d="M639.675 77.6937C639.714 77.7188 639.724 77.7708 639.699 77.809C639.674 77.8479 639.622 77.8585 639.584 77.8329C639.546 77.8078 639.536 77.7558 639.56 77.7169C639.586 77.6787 639.637 77.668 639.675 77.6937Z" fill="#B24BF3"/>
<path d="M655.581 89.5083C655.615 89.5371 655.62 89.5916 655.591 89.6299C655.563 89.6687 655.511 89.6762 655.477 89.648C655.442 89.6192 655.437 89.5647 655.466 89.5258C655.495 89.4876 655.546 89.4788 655.581 89.5083Z" fill="#B24BF3"/>
<path d="M429.802 34.672C429.819 34.6676 429.837 34.6726 429.841 34.6827C429.845 34.6927 429.835 34.7046 429.818 34.709C429.802 34.7134 429.784 34.7083 429.78 34.6983C429.775 34.6877 429.785 34.6764 429.802 34.672Z" fill="#B24BF3"/>
<path d="M452.237 29.8065C452.255 29.8033 452.272 29.8096 452.275 29.8197C452.277 29.8297 452.266 29.8403 452.249 29.8435C452.232 29.846 452.215 29.841 452.212 29.8303C452.208 29.8203 452.22 29.8096 452.237 29.8065Z" fill="#B24BF3"/>
<path d="M475.24 26.6419C475.258 26.6401 475.273 26.6463 475.275 26.657C475.277 26.667 475.264 26.677 475.246 26.6789C475.228 26.6808 475.212 26.6739 475.211 26.6639C475.209 26.6526 475.222 26.6432 475.24 26.6419Z" fill="#B24BF3"/>
<path d="M498.568 25.1817C498.603 25.181 498.634 25.1967 498.635 25.2168C498.635 25.2368 498.607 25.2544 498.571 25.2544C498.535 25.255 498.505 25.2393 498.504 25.2193C498.504 25.1992 498.533 25.1817 498.568 25.1817Z" fill="#B24BF3"/>
<path d="M521.982 25.4694C522.018 25.4713 522.046 25.4894 522.044 25.5089C522.042 25.5289 522.011 25.5446 521.976 25.5427C521.94 25.5408 521.912 25.5233 521.914 25.5032C521.915 25.4825 521.946 25.4675 521.982 25.4694Z" fill="#B24BF3"/>
<path d="M545.235 27.4699C545.289 27.4761 545.326 27.5062 545.319 27.5369C545.313 27.5676 545.264 27.5865 545.212 27.5796C545.158 27.5733 545.121 27.5432 545.128 27.5125C545.134 27.4818 545.182 27.4624 545.235 27.4699Z" fill="#B24BF3"/>
<path d="M568.079 31.2035C568.131 31.2135 568.164 31.2467 568.154 31.2774C568.143 31.3081 568.093 31.3238 568.041 31.3131C567.989 31.3025 567.956 31.2693 567.966 31.2386C567.977 31.2091 568.028 31.1928 568.079 31.2035Z" fill="#B24BF3"/>
<path d="M590.286 36.6115C590.353 36.6303 590.392 36.6785 590.372 36.7192C590.353 36.76 590.284 36.7769 590.217 36.7581C590.15 36.7387 590.112 36.6904 590.131 36.6497C590.15 36.6096 590.219 36.592 590.286 36.6115Z" fill="#B24BF3"/>
<path d="M611.608 43.6943C611.672 43.7181 611.703 43.7707 611.68 43.8115C611.655 43.8522 611.584 43.8654 611.52 43.8409C611.456 43.8171 611.425 43.7645 611.449 43.7237C611.473 43.6836 611.544 43.6698 611.608 43.6943Z" fill="#B24BF3"/>
<path d="M631.828 52.3902C631.888 52.4191 631.912 52.4761 631.883 52.5168C631.855 52.5576 631.783 52.5669 631.722 52.5375C631.662 52.5087 631.638 52.4523 631.666 52.4115C631.695 52.3708 631.768 52.3614 631.828 52.3902Z" fill="#B24BF3"/>
<path d="M650.748 62.629C650.817 62.6716 650.839 62.7468 650.797 62.7982C650.754 62.8489 650.664 62.8565 650.595 62.8139C650.525 62.7719 650.503 62.696 650.545 62.6453C650.587 62.5939 650.678 62.587 650.748 62.629Z" fill="#B24BF3"/>
<path d="M357.713 47.547C357.728 47.5388 357.747 47.5382 357.756 47.5463C357.763 47.5539 357.757 47.5664 357.742 47.5745C357.727 47.5827 357.708 47.5827 357.699 47.5752C357.692 47.567 357.697 47.5545 357.713 47.547Z" fill="#B24BF3"/>
<path d="M378.616 37.8383C378.633 37.8314 378.652 37.832 378.658 37.8395C378.665 37.8471 378.658 37.8584 378.641 37.8652C378.624 37.8721 378.606 37.8715 378.599 37.864C378.592 37.8571 378.599 37.8452 378.616 37.8383Z" fill="#B24BF3"/>
<path d="M400.819 29.6952C400.837 29.6895 400.855 29.6914 400.861 29.6989C400.867 29.7065 400.857 29.7171 400.84 29.7221C400.822 29.7278 400.803 29.7265 400.798 29.719C400.793 29.7121 400.802 29.7014 400.819 29.6952Z" fill="#B24BF3"/>
<path d="M424.091 23.1576C424.127 23.1489 424.164 23.1539 424.172 23.1689C424.181 23.1839 424.159 23.2034 424.122 23.2121C424.086 23.2209 424.05 23.2159 424.041 23.2009C424.033 23.1852 424.055 23.1664 424.091 23.1576Z" fill="#B24BF3"/>
<path d="M448.214 18.2966C448.251 18.2904 448.286 18.2979 448.293 18.3129C448.299 18.328 448.274 18.3449 448.236 18.3512C448.199 18.3574 448.163 18.3499 448.157 18.3349C448.151 18.3205 448.176 18.3035 448.214 18.2966Z" fill="#B24BF3"/>
<path d="M472.928 15.1197C472.985 15.1147 473.036 15.1285 473.041 15.1504C473.046 15.173 473.004 15.1955 472.947 15.2005C472.89 15.2062 472.84 15.1924 472.834 15.1698C472.829 15.1473 472.871 15.1253 472.928 15.1197Z" fill="#B24BF3"/>
<path d="M497.989 13.6778C498.048 13.6765 498.095 13.6935 498.097 13.716C498.098 13.7386 498.052 13.7574 497.994 13.7593C497.937 13.7605 497.888 13.7436 497.887 13.721C497.886 13.6985 497.932 13.6791 497.989 13.6778Z" fill="#B24BF3"/>
<path d="M523.138 13.9672C523.196 13.9697 523.24 13.9904 523.237 14.0123C523.235 14.0349 523.186 14.0505 523.128 14.048C523.07 14.0455 523.026 14.0248 523.028 14.0023C523.032 13.9803 523.08 13.9641 523.138 13.9672Z" fill="#B24BF3"/>
<path d="M548.118 15.9706C548.194 15.9793 548.248 16.0107 548.24 16.0408C548.231 16.0708 548.162 16.0878 548.086 16.079C548.011 16.0696 547.956 16.0383 547.965 16.0088C547.974 15.9787 548.043 15.9618 548.118 15.9706Z" fill="#B24BF3"/>
<path d="M572.675 19.6893C572.768 19.7069 572.829 19.7513 572.811 19.7889C572.794 19.8266 572.704 19.8422 572.611 19.8247C572.518 19.8065 572.458 19.7626 572.475 19.725C572.493 19.6874 572.583 19.6718 572.675 19.6893Z" fill="#B24BF3"/>
<path d="M596.56 25.0956C596.668 25.1244 596.732 25.184 596.703 25.2291C596.674 25.2742 596.564 25.2874 596.456 25.2579C596.348 25.2291 596.284 25.1696 596.313 25.1244C596.341 25.0799 596.452 25.0674 596.56 25.0956Z" fill="#B24BF3"/>
<path d="M619.53 32.1513C619.65 32.1939 619.713 32.2704 619.671 32.323C619.628 32.3751 619.497 32.3832 619.377 32.3418C619.257 32.2992 619.194 32.2228 619.236 32.1701C619.278 32.1175 619.409 32.1093 619.53 32.1513Z" fill="#B24BF3"/>
<path d="M641.35 40.8081C641.48 40.8664 641.537 40.9617 641.48 41.0218C641.421 41.082 641.27 41.0839 641.141 41.0262C641.011 40.9679 640.953 40.8727 641.011 40.8125C641.068 40.7524 641.22 40.7505 641.35 40.8081Z" fill="#B24BF3"/>
<path d="M326.414 50.5853C326.429 50.5759 326.449 50.5728 326.458 50.5771C326.467 50.5822 326.462 50.5941 326.446 50.6028C326.431 50.6116 326.411 50.6148 326.402 50.6104C326.394 50.606 326.399 50.5941 326.414 50.5853Z" fill="#B24BF3"/>
<path d="M347.266 39.4357C347.283 39.4275 347.303 39.425 347.311 39.4294C347.319 39.4344 347.312 39.445 347.296 39.4532C347.28 39.4613 347.259 39.4638 347.251 39.4588C347.243 39.4538 347.25 39.4432 347.266 39.4357Z" fill="#B24BF3"/>
<path d="M369.683 29.7579C369.719 29.7448 369.758 29.7416 369.772 29.751C369.785 29.7611 369.768 29.7799 369.733 29.7936C369.697 29.8068 369.658 29.8099 369.644 29.8005C369.631 29.7911 369.648 29.7723 369.683 29.7579Z" fill="#B24BF3"/>
<path d="M393.476 21.6392C393.513 21.6279 393.553 21.6267 393.564 21.6367C393.575 21.6467 393.554 21.6636 393.516 21.6743C393.479 21.6856 393.44 21.6868 393.429 21.6768C393.418 21.6674 393.439 21.6505 393.476 21.6392Z" fill="#B24BF3"/>
<path d="M418.388 15.119C418.446 15.1058 418.505 15.1071 418.517 15.1215C418.53 15.1365 418.494 15.1585 418.435 15.1716C418.377 15.1848 418.319 15.1829 418.306 15.1691C418.293 15.1547 418.329 15.1322 418.388 15.119Z" fill="#B24BF3"/>
<path d="M444.192 10.2623C444.253 10.2536 444.309 10.2579 444.318 10.2723C444.327 10.2874 444.286 10.3062 444.226 10.315C444.166 10.3244 444.11 10.32 444.101 10.3049C444.092 10.2911 444.132 10.2717 444.192 10.2623Z" fill="#B24BF3"/>
<path d="M470.619 7.09307C470.701 7.08618 470.773 7.09558 470.78 7.11501C470.787 7.13443 470.726 7.15574 470.644 7.16326C470.563 7.17015 470.491 7.16012 470.484 7.14132C470.478 7.12127 470.538 7.10059 470.619 7.09307Z" fill="#B24BF3"/>
<path d="M497.411 5.64184C497.514 5.63933 497.599 5.65688 497.601 5.68132C497.603 5.70514 497.521 5.72645 497.418 5.72895C497.316 5.73146 497.23 5.71328 497.229 5.68947C497.226 5.66503 497.308 5.64372 497.411 5.64184Z" fill="#B24BF3"/>
<path d="M524.297 5.92171C524.421 5.92735 524.517 5.95492 524.511 5.98375C524.505 6.01258 524.401 6.03201 524.278 6.02637C524.155 6.02135 524.06 5.99378 524.065 5.96433C524.07 5.9355 524.174 5.91669 524.297 5.92171Z" fill="#B24BF3"/>
<path d="M551.008 7.93016C551.15 7.94582 551.253 7.9853 551.237 8.01915C551.222 8.05299 551.094 8.06741 550.952 8.05237C550.81 8.03733 550.708 7.99722 550.723 7.96338C550.738 7.93016 550.866 7.91512 551.008 7.93016Z" fill="#B24BF3"/>
<path d="M577.275 11.651C577.433 11.6792 577.54 11.7331 577.512 11.772C577.483 11.8102 577.332 11.819 577.173 11.7908C577.015 11.7632 576.908 11.7093 576.936 11.6705C576.964 11.6316 577.115 11.6235 577.275 11.651Z" fill="#B24BF3"/>
<path d="M602.841 17.0466C603.034 17.0949 603.15 17.172 603.102 17.2209C603.054 17.2691 602.86 17.2697 602.669 17.2221C602.477 17.1739 602.36 17.0962 602.407 17.0473C602.454 16.9996 602.649 16.999 602.841 17.0466Z" fill="#B24BF3"/>
<path d="M627.43 24.1002C627.614 24.1604 627.714 24.2481 627.654 24.297C627.594 24.3453 627.396 24.3359 627.212 24.2757C627.028 24.2155 626.928 24.1278 626.988 24.0789C627.048 24.03 627.246 24.0401 627.43 24.1002Z" fill="#B24BF3"/>
<path d="M650.838 32.7248C651.046 32.8113 651.145 32.9285 651.058 32.9868C650.971 33.0451 650.732 33.0225 650.524 32.936C650.316 32.8489 650.217 32.7317 650.303 32.6734C650.39 32.6152 650.629 32.6377 650.838 32.7248Z" fill="#B24BF3"/>
<path d="M275.765 72.0778C275.778 72.0665 275.798 72.0596 275.809 72.0628C275.82 72.0653 275.818 72.0759 275.805 72.0872C275.792 72.0985 275.772 72.1047 275.761 72.1022C275.75 72.1004 275.752 72.0891 275.765 72.0778Z" fill="#B24BF3"/>
<path d="M294.156 58.3161C294.171 58.3061 294.191 58.2998 294.2 58.3023C294.21 58.3048 294.207 58.3149 294.192 58.3249C294.177 58.3349 294.157 58.3412 294.147 58.3387C294.137 58.3368 294.14 58.3268 294.156 58.3161Z" fill="#B24BF3"/>
<path d="M314.587 45.8558C314.604 45.847 314.624 45.8414 314.633 45.8439C314.643 45.8464 314.636 45.8552 314.62 45.8646C314.604 45.8733 314.583 45.879 314.574 45.8764C314.564 45.8739 314.571 45.8652 314.587 45.8558Z" fill="#B24BF3"/>
<path d="M336.859 34.7722C336.894 34.7566 336.936 34.7472 336.952 34.7516C336.968 34.756 336.952 34.7729 336.916 34.7885C336.88 34.8048 336.839 34.8142 336.823 34.8092C336.808 34.8048 336.823 34.7879 336.859 34.7722Z" fill="#B24BF3"/>
<path d="M360.785 25.1469C360.842 25.1269 360.904 25.1156 360.925 25.1219C360.945 25.1281 360.915 25.1507 360.859 25.1707C360.802 25.1908 360.74 25.2021 360.72 25.1958C360.699 25.1889 360.728 25.167 360.785 25.1469Z" fill="#B24BF3"/>
<path d="M386.14 17.0514C386.22 17.0294 386.303 17.0181 386.325 17.0269C386.347 17.0357 386.301 17.0608 386.221 17.0833C386.141 17.1052 386.059 17.1165 386.036 17.1078C386.014 17.099 386.061 17.0739 386.14 17.0514Z" fill="#B24BF3"/>
<path d="M412.685 10.55C412.789 10.528 412.891 10.5193 412.912 10.5299C412.934 10.5412 412.868 10.5675 412.764 10.5888C412.661 10.6108 412.559 10.6195 412.537 10.6089C412.515 10.5982 412.582 10.5719 412.685 10.55Z" fill="#B24BF3"/>
<path d="M440.163 5.69621C440.291 5.67804 440.41 5.67365 440.429 5.68681C440.447 5.69997 440.358 5.72504 440.23 5.74384C440.102 5.76264 439.984 5.7664 439.965 5.75387C439.947 5.74008 440.035 5.71501 440.163 5.69621Z" fill="#B24BF3"/>
<path d="M468.305 2.53293C468.457 2.52039 468.59 2.5229 468.603 2.53794C468.615 2.55298 468.502 2.57554 468.349 2.58808C468.198 2.60061 468.064 2.59811 468.052 2.58306C468.04 2.5674 468.153 2.54546 468.305 2.53293Z" fill="#B24BF3"/>
<path d="M496.83 1.08291C497.027 1.07852 497.19 1.09105 497.194 1.11111C497.198 1.13053 497.041 1.14933 496.845 1.15372C496.647 1.1581 496.484 1.14494 496.481 1.12552C496.476 1.10609 496.633 1.08729 496.83 1.08291Z" fill="#B24BF3"/>
<path d="M525.458 1.36741C525.677 1.37619 525.847 1.40063 525.838 1.42256C525.828 1.44449 525.644 1.45514 525.425 1.44637C525.207 1.4376 525.038 1.41253 525.046 1.39122C525.054 1.36866 525.239 1.35864 525.458 1.36741Z" fill="#B24BF3"/>
<path d="M553.905 3.37682C554.165 3.40314 554.353 3.44512 554.326 3.47145C554.299 3.49714 554.068 3.49714 553.809 3.47081C553.55 3.44449 553.361 3.40188 553.388 3.37556C553.414 3.34987 553.645 3.34987 553.905 3.37682Z" fill="#B24BF3"/>
<path d="M581.881 7.09993C582.156 7.14568 582.341 7.20522 582.296 7.23342C582.25 7.26162 581.99 7.24845 581.716 7.20271C581.441 7.15696 581.255 7.09743 581.3 7.0686C581.346 7.03977 581.605 7.05418 581.881 7.09993Z" fill="#B24BF3"/>
<path d="M609.12 12.4967C609.427 12.5681 609.618 12.6521 609.546 12.6847C609.474 12.7173 609.167 12.6866 608.861 12.6151C608.554 12.5437 608.362 12.4585 608.434 12.4259C608.505 12.3933 608.813 12.4252 609.12 12.4967Z" fill="#B24BF3"/>
<path d="M635.352 19.5232C635.685 19.6254 635.872 19.7376 635.77 19.7745C635.667 19.8121 635.315 19.7601 634.982 19.658C634.65 19.5558 634.462 19.443 634.563 19.4048C634.665 19.3691 635.018 19.4211 635.352 19.5232Z" fill="#B24BF3"/>
<path d="M244.134 85.2951C244.146 85.2838 244.166 85.2738 244.178 85.2744C244.189 85.2744 244.189 85.2838 244.177 85.2957C244.164 85.307 244.145 85.3171 244.133 85.3171C244.121 85.3171 244.122 85.307 244.134 85.2951Z" fill="#B24BF3"/>
<path d="M261.468 70.5152C261.482 70.5045 261.502 70.4951 261.514 70.4951C261.524 70.4951 261.522 70.5039 261.507 70.5152C261.493 70.5258 261.473 70.5346 261.462 70.5352C261.452 70.5346 261.454 70.5258 261.468 70.5152Z" fill="#B24BF3"/>
<path d="M281.079 56.9104C281.111 56.8903 281.152 56.8747 281.172 56.874C281.192 56.8734 281.183 56.8891 281.151 56.9091C281.119 56.9292 281.077 56.9455 281.057 56.9461C281.037 56.9467 281.047 56.9311 281.079 56.9104Z" fill="#B24BF3"/>
<path d="M302.819 44.5663C302.871 44.5393 302.936 44.5168 302.962 44.5161C302.989 44.5155 302.968 44.5362 302.916 44.5631C302.864 44.5901 302.799 44.612 302.773 44.6133C302.746 44.6139 302.767 44.5926 302.819 44.5663Z" fill="#B24BF3"/>
<path d="M326.501 33.5695C326.576 33.5382 326.663 33.5112 326.694 33.5093C326.726 33.5081 326.69 33.5319 326.615 33.5638C326.539 33.5952 326.453 33.6221 326.421 33.624C326.39 33.6253 326.425 33.6008 326.501 33.5695Z" fill="#B24BF3"/>
<path d="M351.914 24.0033C352.014 23.9694 352.123 23.9406 352.156 23.9381C352.19 23.9362 352.136 23.9619 352.036 23.9951C351.936 24.0296 351.827 24.0584 351.793 24.0603C351.76 24.0628 351.813 24.0371 351.914 24.0033Z" fill="#B24BF3"/>
<path d="M378.828 15.9454C378.955 15.9122 379.084 15.8827 379.118 15.8796C379.152 15.8771 379.076 15.9015 378.949 15.9353C378.822 15.9686 378.693 15.9974 378.659 16.0011C378.626 16.0037 378.701 15.9786 378.828 15.9454Z" fill="#B24BF3"/>
<path d="M406.985 9.46655C407.161 9.43146 407.332 9.40075 407.366 9.39636C407.401 9.3926 407.287 9.41829 407.111 9.45276C406.935 9.48723 406.765 9.51858 406.73 9.52234C406.696 9.5261 406.81 9.50102 406.985 9.46655Z" fill="#B24BF3"/>
<path d="M436.132 4.62518C436.359 4.59447 436.567 4.56564 436.597 4.56063C436.628 4.55624 436.469 4.57755 436.243 4.60763C436.017 4.63834 435.809 4.66716 435.778 4.67155C435.747 4.67656 435.907 4.65589 436.132 4.62518Z" fill="#B24BF3"/>
<path d="M465.988 1.46917C466.241 1.44974 466.463 1.42968 466.482 1.42404C466.501 1.41903 466.311 1.43031 466.058 1.44973C465.805 1.46916 465.584 1.48922 465.564 1.49486C465.545 1.49987 465.734 1.48859 465.988 1.46917Z" fill="#B24BF3"/>
<path d="M496.248 0.0290688C496.574 0.0228019 496.842 0.0121422 496.849 0.00524865C496.854 -0.00164491 496.596 -0.00163978 496.271 0.00462709C495.946 0.010894 495.677 0.0215493 495.671 0.0278161C495.664 0.0353364 495.922 0.0359624 496.248 0.0290688Z" fill="#B24BF3"/>
<path d="M526.623 0.3201C526.994 0.334514 527.283 0.338904 527.269 0.331384C527.254 0.323864 526.942 0.306314 526.571 0.2919C526.201 0.278113 525.912 0.271848 525.925 0.279995C525.939 0.288142 526.251 0.306313 526.623 0.3201Z" fill="#B24BF3"/>
<path d="M556.804 2.3391C557.217 2.37858 557.52 2.40303 557.48 2.39426C557.44 2.38548 557.073 2.34662 556.661 2.30714C556.249 2.26766 555.947 2.24197 555.985 2.25074C556.025 2.25952 556.391 2.29899 556.804 2.3391Z" fill="#B24BF3"/>
<path d="M586.501 6.06549C586.973 6.13881 587.294 6.18958 587.22 6.17955C587.146 6.16952 586.705 6.10246 586.235 6.02914C585.764 5.95582 585.442 5.90381 585.515 5.91384C585.587 5.92386 586.029 5.99216 586.501 6.06549Z" fill="#B24BF3"/>
<path d="M615.41 11.4612C615.91 11.5709 616.226 11.6492 616.115 11.6392C616.005 11.6279 615.512 11.5314 615.014 11.4224C614.515 11.3127 614.199 11.2325 614.307 11.2431C614.416 11.2538 614.91 11.3522 615.41 11.4612Z" fill="#B24BF3"/>
<path d="M643.256 18.4769C643.777 18.6267 644.076 18.737 643.926 18.7257C643.775 18.7145 643.233 18.5854 642.714 18.4356C642.195 18.2858 641.895 18.1736 642.043 18.1843C642.192 18.1962 642.735 18.3278 643.256 18.4769Z" fill="#B24BF3"/>
<path d="M199.753 119.022C199.762 119.009 199.781 118.997 199.793 118.995C199.806 118.993 199.809 119.002 199.8 119.015C199.791 119.029 199.773 119.04 199.76 119.042C199.747 119.044 199.744 119.035 199.753 119.022Z" fill="#B24BF3"/>
<path d="M213.008 102.484C213.019 102.472 213.038 102.46 213.051 102.458C213.063 102.455 213.064 102.464 213.053 102.476C213.042 102.489 213.022 102.501 213.01 102.503C212.997 102.506 212.997 102.497 213.008 102.484Z" fill="#B24BF3"/>
<path d="M228.899 86.9014C228.925 86.8782 228.965 86.8556 228.988 86.8506C229.011 86.8456 229.008 86.86 228.982 86.8832C228.956 86.9064 228.915 86.9289 228.892 86.934C228.87 86.939 228.872 86.9239 228.899 86.9014Z" fill="#B24BF3"/>
<path d="M247.322 72.3543C247.367 72.3217 247.429 72.2898 247.461 72.2816C247.494 72.2735 247.483 72.2929 247.437 72.3255C247.393 72.3575 247.33 72.3901 247.298 72.3982C247.265 72.4064 247.276 72.3869 247.322 72.3543Z" fill="#B24BF3"/>
<path d="M268.147 58.9282C268.198 58.8987 268.263 58.868 268.292 58.8593C268.321 58.8505 268.305 58.8674 268.254 58.8969C268.204 58.9263 268.139 58.9576 268.109 58.9658C268.08 58.9746 268.097 58.9576 268.147 58.9282Z" fill="#B24BF3"/>
<path d="M291.158 46.7287C291.25 46.6842 291.361 46.6365 291.405 46.6221C291.449 46.6071 291.41 46.6315 291.318 46.6754C291.226 46.7199 291.116 46.7675 291.071 46.7819C291.027 46.797 291.065 46.7732 291.158 46.7287Z" fill="#B24BF3"/>
<path d="M316.214 35.833C316.334 35.786 316.469 35.7334 316.516 35.7146C316.562 35.6964 316.504 35.7203 316.384 35.7666C316.264 35.8136 316.13 35.8663 316.083 35.8851C316.036 35.9032 316.095 35.8801 316.214 35.833Z" fill="#B24BF3"/>
<path d="M343.075 26.3403C343.245 26.2865 343.426 26.2225 343.48 26.1981C343.533 26.1736 343.439 26.1975 343.27 26.2514C343.1 26.3046 342.919 26.3685 342.865 26.393C342.811 26.4174 342.905 26.3942 343.075 26.3403Z" fill="#B24BF3"/>
<path d="M371.52 18.3302C371.744 18.275 371.97 18.2042 372.026 18.1735C372.081 18.1422 371.945 18.1622 371.722 18.218C371.498 18.2731 371.272 18.3433 371.217 18.3747C371.161 18.4054 371.297 18.3859 371.52 18.3302Z" fill="#B24BF3"/>
<path d="M401.291 11.8816C401.57 11.8296 401.838 11.7562 401.89 11.7193C401.941 11.6823 401.757 11.6942 401.479 11.7456C401.2 11.7976 400.933 11.8703 400.881 11.9079C400.828 11.9449 401.012 11.933 401.291 11.8816Z" fill="#B24BF3"/>
<path d="M432.107 7.05926C432.441 7.01664 432.747 6.94582 432.79 6.90195C432.833 6.85809 432.596 6.85745 432.262 6.90069C431.928 6.94331 431.622 7.01349 431.578 7.05736C431.535 7.10123 431.771 7.10187 432.107 7.05926Z" fill="#B24BF3"/>
<path d="M463.666 3.92089C464.08 3.89081 464.44 3.82313 464.469 3.76923C464.498 3.71597 464.187 3.69779 463.774 3.72787C463.361 3.75795 463.001 3.825 462.971 3.87764C462.94 3.93154 463.251 3.95097 463.666 3.92089Z" fill="#B24BF3"/>
<path d="M495.666 2.49669C496.157 2.48791 496.563 2.429 496.571 2.36633C496.579 2.30366 496.188 2.26042 495.697 2.2692C495.207 2.27797 494.802 2.33563 494.792 2.3983C494.783 2.4616 495.174 2.50546 495.666 2.49669Z" fill="#B24BF3"/>
<path d="M527.79 2.8088C528.379 2.83011 528.838 2.78561 528.817 2.70978C528.794 2.63583 528.301 2.5575 527.713 2.53619C527.126 2.51489 526.666 2.55813 526.686 2.63333C526.707 2.70916 527.2 2.78749 527.79 2.8088Z" fill="#B24BF3"/>
<path d="M559.715 4.8417C560.37 4.90123 560.852 4.88054 560.791 4.79469C560.731 4.71134 560.153 4.59478 559.5 4.53525C558.847 4.47571 558.366 4.49576 558.423 4.57974C558.481 4.66497 559.059 4.78279 559.715 4.8417Z" fill="#B24BF3"/>
<path d="M591.12 8.57903C591.832 8.68306 592.324 8.69183 592.217 8.59657C592.111 8.50319 591.45 8.34339 590.741 8.23811C590.031 8.13345 589.539 8.12343 589.642 8.21744C589.746 8.31207 590.407 8.47438 591.12 8.57903Z" fill="#B24BF3"/>
<path d="M621.701 13.9794C622.46 14.1361 622.946 14.178 622.787 14.0746C622.63 13.9725 621.889 13.7632 621.134 13.6059C620.378 13.4492 619.891 13.4041 620.045 13.5069C620.2 13.6103 620.941 13.8227 621.701 13.9794Z" fill="#B24BF3"/>
<path d="M651.16 20.9852C651.953 21.1989 652.42 21.2804 652.204 21.1682C651.987 21.0566 651.174 20.7947 650.385 20.5804C649.595 20.366 649.127 20.2808 649.339 20.3924C649.551 20.5045 650.367 20.7703 651.16 20.9852Z" fill="#B24BF3"/>
<path d="M171.68 140.233C171.687 140.22 171.704 140.206 171.718 140.201C171.731 140.197 171.736 140.205 171.728 140.218C171.721 140.231 171.704 140.245 171.691 140.25C171.677 140.253 171.672 140.247 171.68 140.233Z" fill="#B24BF3"/>
<path d="M182.968 123.266C182.978 123.254 182.996 123.24 183.009 123.236C183.022 123.231 183.024 123.238 183.014 123.25C183.004 123.263 182.986 123.277 182.973 123.281C182.96 123.286 182.958 123.28 182.968 123.266Z" fill="#B24BF3"/>
<path d="M197.08 107.118C197.104 107.093 197.143 107.066 197.167 107.056C197.191 107.047 197.192 107.059 197.168 107.083C197.144 107.107 197.106 107.135 197.081 107.144C197.057 107.154 197.057 107.142 197.08 107.118Z" fill="#B24BF3"/>
<path d="M213.936 91.8595C213.978 91.825 214.039 91.7855 214.073 91.7705C214.107 91.7554 214.1 91.7705 214.058 91.8049C214.016 91.8388 213.955 91.8789 213.921 91.8933C213.888 91.9083 213.894 91.8933 213.936 91.8595Z" fill="#B24BF3"/>
<path d="M233.412 77.5795C233.476 77.5369 233.562 77.4855 233.604 77.4648C233.646 77.4435 233.629 77.4604 233.565 77.5024C233.501 77.545 233.416 77.5964 233.373 77.6177C233.331 77.639 233.349 77.6215 233.412 77.5795Z" fill="#B24BF3"/>
<path d="M255.349 64.3793C255.456 64.321 255.589 64.2477 255.648 64.2151C255.705 64.1826 255.667 64.2032 255.56 64.2615C255.454 64.3198 255.321 64.3931 255.262 64.4257C255.204 64.4583 255.243 64.4376 255.349 64.3793Z" fill="#B24BF3"/>
<path d="M279.604 52.3466C279.759 52.2764 279.942 52.183 280.012 52.1392C280.082 52.0947 280.012 52.1154 279.857 52.1855C279.702 52.2557 279.519 52.3485 279.449 52.393C279.379 52.4375 279.448 52.4168 279.604 52.3466Z" fill="#B24BF3"/>
<path d="M305.999 41.5666C306.188 41.497 306.398 41.3993 306.468 41.3479C306.537 41.2971 306.441 41.3122 306.252 41.3823C306.064 41.4519 305.854 41.5497 305.784 41.6004C305.714 41.6518 305.81 41.6368 305.999 41.5666Z" fill="#B24BF3"/>
<path d="M334.279 32.1693C334.547 32.089 334.829 31.9681 334.91 31.8992C334.989 31.8308 334.837 31.8402 334.569 31.9205C334.301 32.0007 334.019 32.121 333.939 32.1899C333.859 32.2589 334.011 32.2495 334.279 32.1693Z" fill="#B24BF3"/>
<path d="M364.234 24.2253C364.587 24.1419 364.94 24.0047 365.023 23.9182C365.106 23.8317 364.887 23.8292 364.535 23.9119C364.183 23.9947 363.83 24.1319 363.747 24.2177C363.663 24.3055 363.881 24.308 364.234 24.2253Z" fill="#B24BF3"/>
<path d="M395.594 17.8196C396.035 17.7419 396.455 17.594 396.532 17.49C396.609 17.386 396.315 17.3653 395.875 17.443C395.435 17.5207 395.016 17.668 394.937 17.7714C394.86 17.876 395.153 17.8974 395.594 17.8196Z" fill="#B24BF3"/>
<path d="M428.062 13.0388C428.617 12.9711 429.121 12.8132 429.188 12.6854C429.254 12.5588 428.859 12.5105 428.306 12.5776C427.753 12.6453 427.249 12.8026 427.181 12.9291C427.113 13.0576 427.507 13.1065 428.062 13.0388Z" fill="#B24BF3"/>
<path d="M461.335 9.92873C462.003 9.88235 462.58 9.72255 462.626 9.57214C462.67 9.42236 462.166 9.33777 461.5 9.38351C460.834 9.42989 460.257 9.58843 460.209 9.73821C460.163 9.88861 460.666 9.97448 461.335 9.92873Z" fill="#B24BF3"/>
<path d="M495.08 8.5305C495.859 8.51734 496.498 8.36506 496.51 8.19021C496.522 8.01787 495.903 7.88815 495.128 7.90131C494.354 7.91447 493.714 8.0655 493.699 8.23846C493.684 8.41331 494.302 8.54366 495.08 8.5305Z" fill="#B24BF3"/>
<path d="M528.961 8.86141C529.841 8.89149 530.528 8.75551 530.497 8.55748C530.464 8.36195 529.728 8.17895 528.852 8.14824C527.976 8.11816 527.289 8.2529 527.316 8.44843C527.344 8.64646 528.08 8.83133 528.961 8.86141Z" fill="#B24BF3"/>
<path d="M562.63 10.9199C563.602 11.0032 564.321 10.8917 564.234 10.6704C564.148 10.4524 563.294 10.2067 562.327 10.1227C561.36 10.0394 560.641 10.1484 560.721 10.3678C560.803 10.5883 561.657 10.8359 562.63 10.9199Z" fill="#B24BF3"/>
<path d="M595.759 14.6882C596.835 14.838 597.583 14.7566 597.43 14.5059C597.277 14.2583 596.286 13.9368 595.216 13.7871C594.145 13.6373 593.396 13.715 593.541 13.9632C593.689 14.2126 594.681 14.5378 595.759 14.6882Z" fill="#B24BF3"/>
<path d="M628.007 20.0992C629.146 20.321 629.886 20.279 629.659 20.0058C629.434 19.7363 628.333 19.3384 627.201 19.1159C626.069 18.8941 625.328 18.931 625.545 19.2011C625.764 19.4737 626.866 19.8767 628.007 20.0992Z" fill="#B24BF3"/>
<path d="M659.069 27.0999C660.253 27.4007 660.962 27.4051 660.655 27.1106C660.35 26.8186 659.151 26.3398 657.976 26.0377C656.799 25.735 656.086 25.725 656.381 26.017C656.681 26.3116 657.884 26.7972 659.069 27.0999Z" fill="#B24BF3"/>
<path d="M154.57 147.217C154.586 147.191 154.62 147.16 154.646 147.146C154.671 147.133 154.679 147.143 154.663 147.169C154.646 147.195 154.613 147.226 154.587 147.239C154.562 147.253 154.554 147.242 154.57 147.217Z" fill="#B24BF3"/>
<path d="M166.575 130.758C166.606 130.721 166.661 130.674 166.698 130.653C166.735 130.633 166.74 130.645 166.709 130.682C166.678 130.72 166.622 130.766 166.585 130.787C166.549 130.808 166.543 130.795 166.575 130.758Z" fill="#B24BF3"/>
<path d="M181.528 115.032C181.565 114.997 181.624 114.951 181.66 114.929C181.695 114.907 181.693 114.918 181.655 114.953C181.618 114.988 181.559 115.035 181.523 115.057C181.488 115.078 181.49 115.068 181.528 115.032Z" fill="#B24BF3"/>
<path d="M199.265 100.158C199.339 100.102 199.443 100.027 199.498 99.9884C199.554 99.9508 199.539 99.9646 199.466 100.02C199.393 100.076 199.288 100.151 199.233 100.19C199.178 100.227 199.192 100.213 199.265 100.158Z" fill="#B24BF3"/>
<path d="M219.718 86.1982C219.835 86.1255 219.988 86.0221 220.061 85.9676C220.133 85.9131 220.097 85.9275 219.981 86.0002C219.864 86.0723 219.71 86.1757 219.638 86.2302C219.565 86.2847 219.601 86.2703 219.718 86.1982Z" fill="#B24BF3"/>
<path d="M242.748 73.248C242.915 73.1621 243.12 73.0336 243.206 72.9616C243.292 72.8889 243.225 72.9001 243.058 72.986C242.89 73.0719 242.686 73.1997 242.6 73.2718C242.514 73.3445 242.58 73.3338 242.748 73.248Z" fill="#B24BF3"/>
<path d="M268.194 61.4076C268.419 61.3123 268.678 61.1625 268.772 61.0723C268.868 60.982 268.762 60.9864 268.539 61.0817C268.314 61.1769 268.056 61.3267 267.961 61.4163C267.866 61.5066 267.97 61.5028 268.194 61.4076Z" fill="#B24BF3"/>
<path d="M295.857 50.7962C296.166 50.6884 296.503 50.5072 296.61 50.3907C296.717 50.2747 296.555 50.2685 296.246 50.3757C295.939 50.4834 295.602 50.6639 295.495 50.7799C295.387 50.8958 295.549 50.9033 295.857 50.7962Z" fill="#B24BF3"/>
<path d="M325.524 41.5169C325.946 41.3972 326.385 41.1778 326.504 41.0274C326.622 40.877 326.376 40.852 325.955 40.9717C325.534 41.0907 325.096 41.3088 324.976 41.4592C324.856 41.6103 325.101 41.6359 325.524 41.5169Z" fill="#B24BF3"/>
<path d="M356.964 33.6568C357.508 33.5359 358.046 33.2871 358.166 33.1022C358.287 32.9173 357.945 32.8666 357.402 32.9875C356.86 33.1085 356.322 33.3566 356.201 33.5403C356.078 33.7251 356.42 33.7778 356.964 33.6568Z" fill="#B24BF3"/>
<path d="M389.9 27.3101C390.569 27.1986 391.201 26.9291 391.313 26.7098C391.423 26.4904 390.972 26.4046 390.305 26.5161C389.638 26.6283 389.007 26.8965 388.893 27.1146C388.78 27.3352 389.23 27.4223 389.9 27.3101Z" fill="#B24BF3"/>
<path d="M424.019 22.5769C424.841 22.4816 425.583 22.1921 425.677 21.9295C425.769 21.6682 425.181 21.5347 424.362 21.6287C423.543 21.724 422.802 22.0116 422.706 22.2723C422.61 22.5355 423.198 22.6709 424.019 22.5769Z" fill="#B24BF3"/>
<path d="M459.002 19.5051C459.976 19.4412 460.813 19.1429 460.875 18.8377C460.936 18.535 460.2 18.3408 459.231 18.404C458.263 18.468 457.425 18.7644 457.359 19.0677C457.293 19.3723 458.028 19.5684 459.002 19.5051Z" fill="#B24BF3"/>
<path d="M494.494 18.1425C495.613 18.1237 496.531 17.8279 496.547 17.4801C496.561 17.1354 495.672 16.871 494.559 16.8885C493.447 16.9073 492.529 17.2012 492.507 17.5453C492.487 17.8937 493.376 18.1601 494.494 18.1425Z" fill="#B24BF3"/>
<path d="M530.135 18.5246C531.415 18.566 532.416 18.2764 532.371 17.8772C532.325 17.4824 531.258 17.129 529.985 17.087C528.712 17.0456 527.712 17.332 527.748 17.7268C527.787 18.126 528.854 18.4826 530.135 18.5246Z" fill="#B24BF3"/>
<path d="M565.556 20.6163C566.956 20.7304 567.993 20.4653 567.874 20.0229C567.755 19.5867 566.533 19.1405 565.142 19.0258C563.751 18.9117 562.713 19.1724 562.821 19.6093C562.932 20.0511 564.155 20.5016 565.556 20.6163Z" fill="#B24BF3"/>
<path d="M600.398 24.4187C601.925 24.6198 602.993 24.3842 602.785 23.8922C602.578 23.4059 601.183 22.8482 599.667 22.6464C598.151 22.4446 597.08 22.6746 597.275 23.1615C597.472 23.6535 598.87 24.2175 600.398 24.4187Z" fill="#B24BF3"/>
<path d="M634.313 29.864C635.943 30.1648 637.013 29.9686 636.704 29.4259C636.397 28.8907 634.838 28.2127 633.222 27.9112C631.603 27.6098 630.529 27.7978 630.821 28.3342C631.119 28.877 632.681 29.5619 634.313 29.864Z" fill="#B24BF3"/>
<path d="M138.022 157.322C138.047 157.285 138.099 157.234 138.136 157.207C138.173 157.18 138.183 157.188 138.157 157.226C138.132 157.263 138.08 157.315 138.043 157.341C138.006 157.368 137.996 157.36 138.022 157.322Z" fill="#B24BF3"/>
<path d="M150.7 141.428C150.743 141.379 150.817 141.311 150.865 141.273C150.913 141.236 150.916 141.245 150.873 141.292C150.829 141.34 150.755 141.408 150.707 141.446C150.66 141.483 150.656 141.475 150.7 141.428Z" fill="#B24BF3"/>
<path d="M166.358 126.224C166.437 126.156 166.557 126.053 166.625 125.994C166.693 125.936 166.685 125.944 166.606 126.013C166.527 126.081 166.408 126.184 166.339 126.243C166.271 126.301 166.279 126.293 166.358 126.224Z" fill="#B24BF3"/>
<path d="M184.933 111.778C185.056 111.692 185.225 111.557 185.312 111.476C185.398 111.395 185.368 111.4 185.246 111.486C185.123 111.573 184.954 111.708 184.867 111.788C184.781 111.869 184.81 111.864 184.933 111.778Z" fill="#B24BF3"/>
<path d="M206.315 98.1761C206.49 98.0752 206.713 97.9092 206.813 97.8051C206.914 97.7017 206.855 97.6992 206.681 97.8008C206.506 97.9017 206.283 98.0677 206.182 98.1711C206.082 98.2752 206.141 98.277 206.315 98.1761Z" fill="#B24BF3"/>
<path d="M230.359 85.5343C230.611 85.4127 230.914 85.2021 231.036 85.0643C231.158 84.927 231.051 84.9138 230.798 85.0354C230.547 85.157 230.244 85.367 230.122 85.5042C230 85.6427 230.106 85.6559 230.359 85.5343Z" fill="#B24BF3"/>
<path d="M256.911 73.959C257.273 73.8142 257.684 73.5485 257.829 73.3649C257.973 73.1819 257.796 73.1512 257.434 73.2954C257.073 73.4401 256.664 73.7052 256.519 73.8882C256.373 74.0712 256.549 74.1031 256.911 73.959Z" fill="#B24BF3"/>
<path d="M285.808 63.5382C286.292 63.3797 286.812 63.0644 286.971 62.8351C287.129 62.6063 286.866 62.5499 286.384 62.7091C285.902 62.8683 285.382 63.1823 285.222 63.411C285.063 63.6404 285.325 63.6974 285.808 63.5382Z" fill="#B24BF3"/>
<path d="M316.823 54.4066C317.462 54.2355 318.117 53.8651 318.287 53.5781C318.456 53.2923 318.077 53.2002 317.44 53.3707C316.805 53.5411 316.151 53.9109 315.979 54.196C315.807 54.483 316.185 54.577 316.823 54.4066Z" fill="#B24BF3"/>
<path d="M349.718 46.6525C350.521 46.4827 351.307 46.0666 351.476 45.7232C351.643 45.381 351.131 45.2425 350.332 45.4111C349.533 45.5809 348.747 45.9951 348.577 46.3367C348.406 46.6801 348.917 46.8217 349.718 46.6525Z" fill="#B24BF3"/>
<path d="M384.211 40.3813C385.182 40.2265 386.093 39.7765 386.247 39.3767C386.398 38.9781 385.737 38.7813 384.77 38.9361C383.804 39.0909 382.894 39.5384 382.738 39.9357C382.582 40.3362 383.24 40.5348 384.211 40.3813Z" fill="#B24BF3"/>
<path d="M419.968 35.7279C421.164 35.5963 422.238 35.1019 422.367 34.6231C422.493 34.1474 421.633 33.8692 420.443 34.0001C419.254 34.1317 418.182 34.6231 418.047 35.0981C417.913 35.5775 418.772 35.8583 419.968 35.7279Z" fill="#B24BF3"/>
<path d="M456.66 32.7062C458.051 32.6197 459.243 32.1071 459.327 31.5613C459.407 31.0198 458.354 30.6507 456.972 30.7372C455.591 30.8237 454.399 31.3325 454.308 31.874C454.218 32.4198 455.27 32.7915 456.66 32.7062Z" fill="#B24BF3"/>
<path d="M493.905 31.4087C495.509 31.3836 496.823 30.8578 496.843 30.233C496.861 29.6145 495.587 29.1332 493.995 29.1576C492.403 29.1827 491.089 29.7041 491.057 30.3226C491.027 30.9481 492.301 31.4331 493.905 31.4087Z" fill="#B24BF3"/>
<path d="M531.314 31.8413C533.116 31.8964 534.523 31.3725 534.462 30.6688C534.398 29.9738 532.899 29.3646 531.113 29.3082C529.325 29.2531 527.917 29.772 527.963 30.467C528.013 31.1707 529.512 31.7849 531.314 31.8413Z" fill="#B24BF3"/>
<path d="M568.493 33.9966C570.471 34.1495 571.94 33.6419 571.778 32.8592C571.615 32.0871 569.897 31.3376 567.937 31.1834C565.975 31.0299 564.504 31.5312 564.646 32.3039C564.794 33.0854 566.515 33.8425 568.493 33.9966Z" fill="#B24BF3"/>
<path d="M605.053 37.8429C607.179 38.1086 608.674 37.6292 608.397 36.7694C608.119 35.9215 606.191 35.0178 604.086 34.7496C601.978 34.4826 600.477 34.9532 600.731 35.8018C600.99 36.6616 602.924 37.5753 605.053 37.8429Z" fill="#B24BF3"/>
<path d="M640.617 43.3162C642.859 43.7085 644.344 43.2679 643.938 42.3316C643.534 41.4079 641.41 40.3413 639.191 39.9471C636.968 39.5535 635.475 39.9809 635.853 40.9059C636.239 41.8416 638.371 42.9213 640.617 43.3162Z" fill="#B24BF3"/>
<path d="M122.102 170.486C122.137 170.438 122.206 170.363 122.253 170.319C122.301 170.274 122.31 170.276 122.275 170.324C122.239 170.371 122.171 170.447 122.123 170.491C122.075 170.536 122.066 170.534 122.102 170.486Z" fill="#B24BF3"/>
<path d="M135.359 155.244C135.428 155.175 135.538 155.062 135.607 154.992C135.676 154.922 135.676 154.92 135.609 154.989C135.54 155.058 135.429 155.171 135.36 155.241C135.292 155.312 135.291 155.313 135.359 155.244Z" fill="#B24BF3"/>
<path d="M151.677 140.627C151.801 140.528 151.981 140.359 152.08 140.249C152.179 140.139 152.159 140.131 152.036 140.23C151.912 140.329 151.733 140.498 151.633 140.608C151.534 140.717 151.554 140.725 151.677 140.627Z" fill="#B24BF3"/>
<path d="M171.015 126.669C171.191 126.554 171.426 126.349 171.541 126.211C171.656 126.073 171.607 126.054 171.432 126.169C171.256 126.284 171.02 126.489 170.906 126.627C170.79 126.765 170.839 126.784 171.015 126.669Z" fill="#B24BF3"/>
<path d="M193.218 113.527C193.49 113.38 193.83 113.103 193.978 112.91C194.125 112.717 194.024 112.68 193.752 112.827C193.48 112.975 193.141 113.251 192.993 113.443C192.845 113.637 192.945 113.674 193.218 113.527Z" fill="#B24BF3"/>
<path d="M218.206 101.253C218.59 101.079 219.042 100.736 219.215 100.486C219.388 100.236 219.217 100.175 218.834 100.348C218.451 100.521 217.999 100.863 217.826 101.114C217.652 101.363 217.822 101.426 218.206 101.253Z" fill="#B24BF3"/>
<path d="M245.818 89.9765C246.35 89.776 246.943 89.3536 247.143 89.0328C247.342 88.7119 247.073 88.6147 246.541 88.8153C246.011 89.0152 245.419 89.4363 245.218 89.7566C245.018 90.0774 245.285 90.1758 245.818 89.9765Z" fill="#B24BF3"/>
<path d="M275.891 79.7888C276.587 79.5726 277.326 79.0782 277.541 78.6859C277.756 78.2942 277.367 78.1525 276.674 78.3687C275.981 78.585 275.245 79.0775 275.028 79.4686C274.811 79.8615 275.196 80.0044 275.891 79.7888Z" fill="#B24BF3"/>
<path d="M308.193 70.8603C309.115 70.6265 310.051 70.038 310.283 69.5467C310.514 69.0573 309.957 68.8505 309.038 69.0836C308.121 69.3174 307.187 69.9027 306.952 70.3915C306.717 70.8835 307.271 71.0934 308.193 70.8603Z" fill="#B24BF3"/>
<path d="M342.51 63.2374C343.645 63.0093 344.748 62.3569 344.974 61.7803C345.198 61.2069 344.463 60.9268 343.333 61.1543C342.205 61.3817 341.105 62.031 340.874 62.6044C340.645 63.181 341.375 63.4642 342.51 63.2374Z" fill="#B24BF3"/>
<path d="M378.518 57.1107C379.928 56.8964 381.242 56.1657 381.452 55.477C381.66 54.792 380.693 54.411 379.29 54.624C377.89 54.8378 376.58 55.5647 376.362 56.249C376.146 56.9378 377.11 57.3226 378.518 57.1107Z" fill="#B24BF3"/>
<path d="M415.909 52.5357C417.597 52.3583 419.104 51.5668 419.277 50.7665C419.445 49.9719 418.225 49.4724 416.548 49.6479C414.872 49.8246 413.368 50.6111 413.185 51.4051C413.004 52.2067 414.222 52.7111 415.909 52.5357Z" fill="#B24BF3"/>
<path d="M454.308 49.5998C456.269 49.4832 457.946 48.6509 458.057 47.7385C458.163 46.8354 456.674 46.1975 454.728 46.3128C452.784 46.4293 451.109 47.2559 450.985 48.159C450.862 49.0715 452.348 49.7151 454.308 49.5998Z" fill="#B24BF3"/>
<path d="M493.312 48.3885C495.561 48.3546 497.403 47.4885 497.427 46.4514C497.448 45.4255 495.661 44.6208 493.431 44.6528C491.202 44.6872 489.362 45.5458 489.317 46.5717C489.275 47.6089 491.062 48.421 493.312 48.3885Z" fill="#B24BF3"/>
<path d="M532.5 48.8807C534.986 48.9534 536.929 48.0836 536.845 46.9349C536.758 45.8005 534.696 44.8204 532.235 44.7465C529.773 44.6738 527.828 45.5342 527.887 46.6691C527.95 47.8179 530.013 48.8061 532.5 48.8807Z" fill="#B24BF3"/>
<path d="M571.444 51.1206C574.165 51.3212 576.191 50.4538 575.975 49.1804C575.758 47.9239 573.404 46.7414 570.714 46.5389C568.02 46.3384 565.989 47.1932 566.171 48.4503C566.362 49.7238 568.72 50.9182 571.444 51.1206Z" fill="#B24BF3"/>
<path d="M609.723 55.0428C612.639 55.3906 614.702 54.5414 614.335 53.1427C613.969 51.7646 611.34 50.3652 608.459 50.0155C605.571 49.6664 603.498 50.4999 603.825 51.8793C604.161 53.2768 606.8 54.6925 609.723 55.0428Z" fill="#B24BF3"/>
<path d="M646.918 60.5241C649.93 61.0242 651.942 60.222 651.418 58.7293C650.899 57.2584 648.07 55.6604 645.096 55.1565C642.113 54.6533 640.086 55.4348 640.564 56.9075C641.053 58.4009 643.898 60.0203 646.918 60.5241Z" fill="#B24BF3"/>
<path d="M106.844 186.677C106.91 186.597 107.027 186.457 107.106 186.362C107.186 186.268 107.197 186.256 107.131 186.336C107.066 186.416 106.948 186.556 106.869 186.651C106.789 186.745 106.778 186.756 106.844 186.677Z" fill="#B24BF3"/>
<path d="M120.631 172.151C120.737 172.052 120.904 171.869 121.003 171.743C121.101 171.617 121.095 171.595 120.989 171.694C120.883 171.792 120.717 171.975 120.618 172.101C120.52 172.227 120.525 172.249 120.631 172.151Z" fill="#B24BF3"/>
<path d="M137.551 158.177C137.722 158.051 137.963 157.806 138.089 157.632C138.216 157.458 138.18 157.419 138.01 157.546C137.84 157.672 137.599 157.916 137.473 158.09C137.347 158.265 137.382 158.304 137.551 158.177Z" fill="#B24BF3"/>
<path d="M157.537 144.834C157.801 144.673 158.146 144.348 158.307 144.108C158.468 143.868 158.384 143.805 158.12 143.966C157.856 144.127 157.512 144.452 157.351 144.69C157.19 144.931 157.272 144.994 157.537 144.834Z" fill="#B24BF3"/>
<path d="M180.503 132.208C180.897 132.009 181.379 131.585 181.578 131.262C181.777 130.939 181.619 130.84 181.226 131.04C180.832 131.239 180.352 131.661 180.152 131.984C179.953 132.306 180.109 132.407 180.503 132.208Z" fill="#B24BF3"/>
<path d="M206.359 120.368C206.904 120.138 207.532 119.619 207.762 119.211C207.991 118.803 207.736 118.661 207.194 118.891C206.651 119.122 206.025 119.638 205.794 120.045C205.562 120.453 205.816 120.597 206.359 120.368Z" fill="#B24BF3"/>
<path d="M234.94 109.479C235.699 109.21 236.532 108.565 236.799 108.039C237.066 107.514 236.669 107.307 235.912 107.576C235.157 107.845 234.327 108.486 234.058 109.011C233.788 109.537 234.182 109.747 234.94 109.479Z" fill="#B24BF3"/>
<path d="M266.125 99.5756C267.096 99.2904 268.113 98.5478 268.398 97.918C268.68 97.29 268.125 97.0143 267.157 97.2994C266.191 97.5846 265.177 98.3234 264.891 98.9501C264.604 99.5799 265.155 99.8595 266.125 99.5756Z" fill="#B24BF3"/>
<path d="M299.658 90.8996C300.936 90.5925 302.219 89.7095 302.524 88.9274C302.826 88.1484 302.04 87.7687 300.768 88.0745C299.498 88.3816 298.22 89.2596 297.91 90.0367C297.6 90.8194 298.381 91.2054 299.658 90.8996Z" fill="#B24BF3"/>
<path d="M335.34 83.4666C336.916 83.1664 338.435 82.1781 338.733 81.2607C339.026 80.3482 337.994 79.8544 336.427 80.1539C334.863 80.4548 333.351 81.4361 333.045 82.3473C332.74 83.2648 333.766 83.7655 335.34 83.4666Z" fill="#B24BF3"/>
<path d="M372.853 77.4655C374.765 77.1892 376.533 76.0993 376.804 75.0308C377.071 73.9699 375.748 73.3344 373.85 73.6095C371.955 73.8859 370.192 74.9682 369.91 76.0285C369.628 77.097 370.943 77.7394 372.853 77.4655Z" fill="#B24BF3"/>
<path d="M411.846 73.044C414.156 72.8127 416.208 71.6113 416.431 70.3598C416.649 69.1184 414.971 68.2999 412.68 68.5299C410.393 68.7612 408.347 69.9538 408.106 71.194C407.866 72.4467 409.538 73.2733 411.846 73.044Z" fill="#B24BF3"/>
<path d="M451.953 70.185C454.592 70.0346 456.842 68.7787 456.981 67.3775C457.115 65.99 455.107 64.9867 452.493 65.1352C449.881 65.2856 447.637 66.5314 447.473 67.9183C447.312 69.3202 449.315 70.3335 451.953 70.185Z" fill="#B24BF3"/>
<path d="M492.718 69.0802C495.729 69.0364 498.188 67.7203 498.217 66.1354C498.24 64.5693 495.849 63.3348 492.872 63.3755C489.895 63.4194 487.437 64.7235 487.376 66.289C487.318 67.8739 489.707 69.121 492.718 69.0802Z" fill="#B24BF3"/>
<path d="M533.69 69.6725C537.009 69.7646 539.603 68.4248 539.491 66.6738C539.375 64.946 536.629 63.4689 533.351 63.3737C530.071 63.2815 527.473 64.6064 527.543 66.3348C527.62 68.0857 530.369 69.5772 533.69 69.6725Z" fill="#B24BF3"/>
<path d="M574.394 71.9551C577.947 72.2045 580.598 70.8716 580.324 68.9714C580.049 67.0989 576.989 65.3755 573.483 65.1223C569.972 64.8723 567.31 66.1864 567.534 68.0602C567.766 69.961 570.836 71.7019 574.394 71.9551Z" fill="#B24BF3"/>
<path d="M614.374 75.941C618.141 76.3684 620.816 75.0455 620.359 72.9805C619.903 70.9469 616.53 68.9497 612.816 68.5185C609.092 68.0892 606.398 69.3877 606.796 71.4232C607.205 73.4875 610.597 75.5086 614.374 75.941Z" fill="#B24BF3"/>
<path d="M653.18 81.452C657.046 82.0631 659.647 80.7834 659.002 78.59C658.362 76.431 654.764 74.185 650.954 73.5683C647.131 72.9535 644.501 74.2019 645.081 76.364C645.675 78.558 649.302 80.836 653.18 81.452Z" fill="#B24BF3"/>
<path d="M92.3759 205.768C92.473 205.661 92.6385 205.447 92.7457 205.291C92.8528 205.135 92.861 205.095 92.7638 205.202C92.6667 205.31 92.5019 205.523 92.3947 205.679C92.2875 205.835 92.2788 205.874 92.3759 205.768Z" fill="#B24BF3"/>
<path d="M106.599 192.073C106.758 191.938 106.996 191.657 107.131 191.445C107.266 191.234 107.247 191.173 107.089 191.308C106.931 191.444 106.694 191.724 106.558 191.935C106.423 192.146 106.441 192.208 106.599 192.073Z" fill="#B24BF3"/>
<path d="M124.007 178.89C124.271 178.71 124.63 178.318 124.811 178.014C124.991 177.712 124.925 177.613 124.662 177.794C124.399 177.975 124.04 178.366 123.86 178.669C123.678 178.971 123.744 179.071 124.007 178.89Z" fill="#B24BF3"/>
<path d="M144.579 166.232C144.971 166.01 145.467 165.507 145.688 165.108C145.908 164.709 145.77 164.566 145.379 164.787C144.989 165.009 144.494 165.51 144.273 165.908C144.051 166.307 144.189 166.452 144.579 166.232Z" fill="#B24BF3"/>
<path d="M168.224 154.209C168.785 153.944 169.455 153.311 169.719 152.794C169.983 152.277 169.741 152.076 169.181 152.341C168.622 152.606 167.955 153.237 167.69 153.751C167.425 154.267 167.663 154.472 168.224 154.209Z" fill="#B24BF3"/>
<path d="M194.848 142.916C195.626 142.609 196.506 141.827 196.813 141.172C197.119 140.518 196.738 140.24 195.962 140.548C195.188 140.856 194.312 141.634 194.003 142.286C193.694 142.941 194.072 143.223 194.848 142.916Z" fill="#B24BF3"/>
<path d="M224.332 132.463C225.378 132.116 226.506 131.173 226.852 130.359C227.196 129.547 226.631 129.174 225.59 129.521C224.551 129.869 223.427 130.806 223.078 131.616C222.729 132.43 223.289 132.809 224.332 132.463Z" fill="#B24BF3"/>
<path d="M256.526 122.971C257.892 122.593 259.304 121.48 259.68 120.486C260.053 119.497 259.254 119.004 257.894 119.383C256.538 119.761 255.133 120.867 254.752 121.855C254.371 122.848 255.163 123.347 256.526 122.971Z" fill="#B24BF3"/>
<path d="M291.235 114.574C292.974 114.179 294.702 112.891 295.094 111.699C295.481 110.514 294.394 109.876 292.664 110.271C290.939 110.667 289.221 111.946 288.821 113.129C288.421 114.32 289.5 114.967 291.235 114.574Z" fill="#B24BF3"/>
<path d="M328.22 107.412C330.383 107.02 332.451 105.56 332.837 104.151C333.218 102.751 331.785 101.938 329.637 102.329C327.495 102.721 325.439 104.17 325.039 105.568C324.64 106.977 326.061 107.801 328.22 107.412Z" fill="#B24BF3"/>
<path d="M367.191 101.596C369.793 101.237 372.185 99.6313 372.534 98.0069C372.877 96.3957 371.065 95.3823 368.485 95.7389C365.912 96.0974 363.533 97.691 363.164 99.3004C362.795 100.925 364.596 101.951 367.191 101.596Z" fill="#B24BF3"/>
<path d="M407.784 97.2967C410.857 97.0028 413.574 95.2612 413.854 93.4037C414.127 91.5644 411.885 90.3122 408.844 90.6043C405.808 90.8982 403.104 92.6253 402.794 94.4634C402.486 96.3215 404.717 97.5875 407.784 97.2967Z" fill="#B24BF3"/>
<path d="M449.587 94.5617C453.086 94.3706 456.059 92.5419 456.232 90.4714C456.396 88.424 453.73 86.9187 450.273 87.1067C446.82 87.2978 443.856 89.1108 443.643 91.1569C443.435 93.2288 446.092 94.7498 449.587 94.5617Z" fill="#B24BF3"/>
<path d="M492.121 93.5478C496.049 93.4927 499.253 91.5882 499.283 89.2857C499.306 87.0127 496.188 85.2129 492.313 85.2643C488.439 85.3194 485.238 87.2051 485.156 89.4781C485.079 91.7806 488.194 93.5992 492.121 93.5478Z" fill="#B24BF3"/>
<path d="M534.883 94.2261C539.163 94.3395 542.508 92.3993 542.363 89.885C542.214 87.4052 538.682 85.3002 534.465 85.183C530.244 85.0696 526.892 86.9866 526.973 89.4664C527.061 91.9807 530.6 94.1083 534.883 94.2261Z" fill="#B24BF3"/>
<path d="M577.345 96.5498C581.855 96.8531 585.225 94.9261 584.886 92.2376C584.545 89.5892 580.679 87.194 576.239 86.8869C571.79 86.583 568.402 88.4825 568.667 91.1315C568.943 93.8193 572.827 96.2421 577.345 96.5498Z" fill="#B24BF3"/>
<path d="M619.007 100.569C623.714 101.079 627.069 99.1629 626.518 96.2839C625.967 93.45 621.78 90.7377 617.149 90.2219C612.502 89.7093 609.115 91.5888 609.584 94.4245C610.066 97.3048 614.287 100.053 619.007 100.569Z" fill="#B24BF3"/>
<path d="M659.376 106.042C664.117 106.754 667.33 104.897 666.571 101.89C665.818 98.9311 661.44 95.9531 656.774 95.2318C652.087 94.5124 648.829 96.3241 649.501 99.2883C650.19 102.298 654.614 105.321 659.376 106.042Z" fill="#B24BF3"/>
<path d="M78.7718 227.674C78.9116 227.533 79.1384 227.219 79.2782 226.972C79.4186 226.724 79.4192 226.638 79.2795 226.778C79.1397 226.919 78.9141 227.233 78.7737 227.479C78.6333 227.726 78.6327 227.813 78.7718 227.674Z" fill="#B24BF3"/>
<path d="M93.3411 214.948C93.5786 214.764 93.9214 214.329 94.1069 213.98C94.2918 213.631 94.2498 213.498 94.0123 213.684C93.7754 213.869 93.4339 214.302 93.2484 214.651C93.0629 215 93.1049 215.133 93.3411 214.948Z" fill="#B24BF3"/>
<path d="M111.177 202.637C111.552 202.4 112.048 201.823 112.284 201.346C112.52 200.869 112.408 200.676 112.033 200.913C111.659 201.149 111.165 201.725 110.929 202.201C110.692 202.677 110.803 202.872 111.177 202.637Z" fill="#B24BF3"/>
<path d="M132.235 190.802C132.793 190.511 133.482 189.765 133.773 189.135C134.063 188.506 133.846 188.235 133.288 188.526C132.732 188.818 132.046 189.561 131.754 190.188C131.463 190.817 131.677 191.091 132.235 190.802Z" fill="#B24BF3"/>
<path d="M156.468 179.483C157.243 179.145 158.145 178.232 158.483 177.444C158.819 176.658 158.466 176.297 157.693 176.637C156.922 176.976 156.024 177.885 155.685 178.669C155.346 179.455 155.695 179.82 156.468 179.483Z" fill="#B24BF3"/>
<path d="M183.768 168.843C184.834 168.451 186.016 167.329 186.408 166.337C186.798 165.348 186.252 164.869 185.19 165.263C184.131 165.656 182.955 166.772 182.561 167.759C182.166 168.748 182.705 169.233 183.768 168.843Z" fill="#B24BF3"/>
<path d="M214.049 158.951C215.466 158.51 216.973 157.164 217.411 155.944C217.847 154.729 217.056 154.105 215.644 154.547C214.237 154.99 212.739 156.327 212.296 157.539C211.853 158.756 212.635 159.388 214.049 158.951Z" fill="#B24BF3"/>
<path d="M247.174 149.926C249.007 149.449 250.878 147.868 251.352 146.397C251.822 144.933 250.724 144.138 248.901 144.617C247.083 145.095 245.225 146.664 244.743 148.123C244.261 149.593 245.347 150.4 247.174 149.926Z" fill="#B24BF3"/>
<path d="M282.966 141.907C285.276 141.411 287.548 139.594 288.039 137.849C288.523 136.115 287.055 135.116 284.759 135.613C282.473 136.11 280.216 137.913 279.714 139.643C279.211 141.385 280.663 142.398 282.966 141.907Z" fill="#B24BF3"/>
<path d="M321.195 135.043C324.042 134.553 326.74 132.504 327.22 130.465C327.692 128.442 325.787 127.203 322.964 127.693C320.151 128.183 317.473 130.215 316.973 132.234C316.472 134.271 318.358 135.528 321.195 135.043Z" fill="#B24BF3"/>
<path d="M361.582 129.414C364.95 128.972 368.028 126.744 368.456 124.436C368.874 122.148 366.511 120.656 363.177 121.096C359.854 121.539 356.797 123.746 356.339 126.031C355.882 128.339 358.224 129.851 361.582 129.414Z" fill="#B24BF3"/>
<path d="M403.737 125.257C407.657 124.898 411.109 122.504 411.447 119.908C411.775 117.339 408.903 115.548 405.029 115.903C401.167 116.263 397.735 118.633 397.353 121.201C396.974 123.798 399.825 125.611 403.737 125.257Z" fill="#B24BF3"/>
<path d="M447.223 122.67C451.677 122.436 455.449 119.916 455.654 117.032C455.85 114.183 452.451 112.061 448.06 112.29C443.675 112.524 439.917 115.02 439.654 117.869C439.393 120.753 442.777 122.898 447.223 122.67Z" fill="#B24BF3"/>
<path d="M491.525 121.677C496.402 121.611 500.373 119.031 500.403 115.905C500.425 112.82 496.556 110.37 491.754 110.431C486.953 110.497 482.987 113.05 482.883 116.134C482.786 119.26 486.65 121.737 491.525 121.677Z" fill="#B24BF3"/>
<path d="M536.073 122.409C541.313 122.542 545.408 119.929 545.232 116.56C545.05 113.24 540.735 110.436 535.581 110.298C530.422 110.165 526.317 112.748 526.405 116.068C526.502 119.436 530.828 122.27 536.073 122.409Z" fill="#B24BF3"/>
<path d="M580.281 124.774C585.742 125.125 589.831 122.527 589.432 118.961C589.029 115.449 584.365 112.315 578.996 111.957C573.615 111.604 569.498 114.165 569.799 117.677C570.113 121.243 574.806 124.416 580.281 124.774Z" fill="#B24BF3"/>
<path d="M623.583 128.741C629.154 129.316 633.141 126.759 632.512 123.02C631.884 119.341 626.955 115.889 621.479 115.305C615.982 114.724 611.948 117.234 612.472 120.917C613.014 124.657 617.991 128.157 623.583 128.741Z" fill="#B24BF3"/>
<path d="M665.468 134.188C671.037 134.983 674.838 132.485 673.985 128.603C673.137 124.784 668.032 121.041 662.556 120.233C657.05 119.427 653.186 121.866 653.933 125.692C654.7 129.579 659.869 133.382 665.468 134.188Z" fill="#B24BF3"/>
<path d="M66.1198 252.302C66.3234 252.118 66.6387 251.649 66.8229 251.257C67.0071 250.864 66.9915 250.696 66.7878 250.881C66.5854 251.066 66.2714 251.533 66.0859 251.925C65.9017 252.318 65.9167 252.486 66.1198 252.302Z" fill="#B24BF3"/>
<path d="M80.9835 240.633C81.315 240.399 81.775 239.777 82.0094 239.245C82.2431 238.714 82.1648 238.475 81.8333 238.71C81.503 238.945 81.0455 239.565 80.8105 240.095C80.5762 240.625 80.6526 240.866 80.9835 240.633Z" fill="#B24BF3"/>
<path d="M99.1686 229.306C99.6737 229.016 100.318 228.214 100.608 227.514C100.897 226.815 100.723 226.486 100.218 226.777C99.7163 227.067 99.0746 227.867 98.7838 228.563C98.493 229.262 98.6647 229.594 99.1686 229.306Z" fill="#B24BF3"/>
<path d="M120.625 218.42C121.374 218.064 122.27 217.029 122.627 216.11C122.982 215.192 122.665 214.74 121.917 215.098C121.173 215.457 120.281 216.487 119.923 217.401C119.566 218.318 119.88 218.774 120.625 218.42Z" fill="#B24BF3"/>
<path d="M145.338 207.963C146.372 207.548 147.549 206.28 147.964 205.132C148.376 203.986 147.874 203.4 146.842 203.818C145.814 204.235 144.645 205.496 144.228 206.636C143.811 207.78 144.306 208.375 145.338 207.963Z" fill="#B24BF3"/>
<path d="M173.215 198.095C174.623 197.617 176.153 196.069 176.633 194.64C177.108 193.215 176.355 192.456 174.951 192.938C173.554 193.42 172.033 194.957 171.552 196.376C171.07 197.8 171.813 198.57 173.215 198.095Z" fill="#B24BF3"/>
<path d="M204.188 188.876C206.041 188.342 207.979 186.497 208.512 184.757C209.04 183.026 207.972 182.064 206.126 182.603C204.289 183.141 202.367 184.971 201.827 186.696C201.288 188.43 202.342 189.407 204.188 188.876Z" fill="#B24BF3"/>
<path d="M238.14 180.421C240.514 179.845 242.905 177.692 243.479 175.615C244.047 173.55 242.592 172.354 240.231 172.935C237.882 173.516 235.51 175.648 234.926 177.706C234.342 179.776 235.777 180.993 238.14 180.421Z" fill="#B24BF3"/>
<path d="M274.916 172.866C277.883 172.268 280.77 169.805 281.361 167.367C281.944 164.946 280.027 163.477 277.082 164.078C274.151 164.68 271.29 167.118 270.681 169.532C270.073 171.966 271.963 173.458 274.916 172.866Z" fill="#B24BF3"/>
<path d="M314.311 166.326C317.906 165.741 321.288 162.999 321.861 160.201C322.422 157.427 319.988 155.661 316.425 156.247C312.88 156.834 309.529 159.548 308.929 162.316C308.328 165.109 310.731 166.904 314.311 166.326Z" fill="#B24BF3"/>
<path d="M356.042 160.926C360.251 160.4 364.078 157.439 364.584 154.311C365.078 151.214 362.101 149.135 357.94 149.66C353.793 150.187 350.002 153.116 349.454 156.209C348.907 159.334 351.848 161.445 356.042 160.926Z" fill="#B24BF3"/>
<path d="M399.716 156.936C404.569 156.511 408.827 153.351 409.222 149.872C409.605 146.433 406.034 143.991 401.246 144.413C396.472 144.839 392.248 147.966 391.792 151.403C391.337 154.881 394.876 157.355 399.716 156.936Z" fill="#B24BF3"/>
<path d="M444.87 154.387C450.27 154.114 454.835 150.841 455.067 147.064C455.288 143.335 451.16 140.531 445.844 140.797C440.539 141.069 435.998 144.309 435.686 148.038C435.377 151.814 439.481 154.652 444.87 154.387Z" fill="#B24BF3"/>
<path d="M490.931 153.451C496.783 153.375 501.543 150.041 501.571 145.992C501.59 141.999 496.948 138.819 491.195 138.889C485.445 138.965 480.692 142.263 480.566 146.256C480.446 150.305 485.081 153.521 490.931 153.451Z" fill="#B24BF3"/>
<path d="M537.257 154.146C543.412 154.296 548.221 150.967 548.016 146.695C547.805 142.486 542.745 138.947 536.701 138.791C530.65 138.64 525.824 141.93 525.916 146.14C526.02 150.411 531.095 153.99 537.257 154.146Z" fill="#B24BF3"/>
<path d="M583.187 156.504C589.518 156.894 594.265 153.598 593.815 149.13C593.362 144.73 587.975 140.843 581.759 140.446C575.526 140.054 570.738 143.301 571.067 147.703C571.411 152.17 576.839 156.107 583.187 156.504Z" fill="#B24BF3"/>
<path d="M628.091 160.392C634.434 161.017 638.992 157.793 638.304 153.183C637.617 148.645 632.032 144.456 625.8 143.819C619.54 143.187 614.918 146.351 615.484 150.894C616.07 155.507 621.719 159.756 628.091 160.392Z" fill="#B24BF3"/>
<path d="M671.404 165.659C677.607 166.499 681.872 163.378 680.968 158.686C680.068 154.066 674.419 149.636 668.318 148.778C662.179 147.922 657.831 150.971 658.62 155.602C659.43 160.302 665.161 164.805 671.404 165.659Z" fill="#B24BF3"/>
<path d="M54.5499 279.47C54.8294 279.245 55.2392 278.592 55.4655 278.011C55.6911 277.432 55.6472 277.146 55.3683 277.373C55.0901 277.6 54.6815 278.251 54.4559 278.829C54.2296 279.408 54.271 279.694 54.5499 279.47Z" fill="#B24BF3"/>
<path d="M69.6265 269.014C70.0796 268.728 70.6806 267.86 70.9682 267.077C71.2546 266.294 71.1199 265.896 70.6668 266.184C70.2156 266.473 69.6177 267.338 69.3301 268.117C69.0424 268.898 69.1747 269.299 69.6265 269.014Z" fill="#B24BF3"/>
<path d="M88.0707 258.842C88.7544 258.49 89.596 257.376 89.9495 256.353C90.301 255.334 90.0328 254.797 89.3491 255.152C88.6698 255.507 87.8331 256.617 87.4791 257.633C87.1262 258.651 87.3895 259.192 88.0707 258.842Z" fill="#B24BF3"/>
<path d="M109.844 249.043C110.841 248.615 111.997 247.198 112.426 245.877C112.853 244.559 112.394 243.845 111.398 244.278C110.409 244.71 109.261 246.12 108.83 247.431C108.4 248.745 108.853 249.467 109.844 249.043Z" fill="#B24BF3"/>
<path d="M134.943 239.588C136.306 239.093 137.814 237.367 138.311 235.735C138.805 234.108 138.103 233.2 136.744 233.701C135.391 234.202 133.895 235.917 133.396 237.535C132.897 239.16 133.587 240.079 134.943 239.588Z" fill="#B24BF3"/>
<path d="M163.281 230.681C165.132 230.107 167.1 227.995 167.676 225.965C168.247 223.944 167.213 222.783 165.367 223.366C163.533 223.947 161.581 226.042 161.002 228.051C160.422 230.071 161.44 231.249 163.281 230.681Z" fill="#B24BF3"/>
<path d="M194.834 222.272C197.238 221.636 199.705 219.143 200.341 216.706C200.971 214.283 199.54 212.849 197.146 213.494C194.767 214.138 192.324 216.608 191.68 219.019C191.036 221.443 192.443 222.901 194.834 222.272Z" fill="#B24BF3"/>
<path d="M229.508 214.466C232.523 213.788 235.518 210.927 236.193 208.08C236.858 205.251 234.966 203.524 231.968 204.209C228.99 204.895 226.027 207.725 225.339 210.54C224.65 213.376 226.51 215.134 229.508 214.466Z" fill="#B24BF3"/>
<path d="M267.15 207.487C270.887 206.785 274.485 203.528 275.179 200.215C275.862 196.93 273.405 194.852 269.697 195.561C266.012 196.271 262.455 199.49 261.738 202.762C261.02 206.064 263.434 208.179 267.15 207.487Z" fill="#B24BF3"/>
<path d="M307.609 201.299C312.049 200.62 316.193 197.054 316.856 193.334C317.505 189.65 314.463 187.228 310.067 187.91C305.696 188.594 301.602 192.118 300.902 195.792C300.201 199.502 303.194 201.968 307.609 201.299Z" fill="#B24BF3"/>
<path d="M350.602 196.135C355.728 195.529 360.363 191.721 360.944 187.629C361.511 183.581 357.859 180.802 352.794 181.408C347.756 182.019 343.173 185.781 342.537 189.822C341.901 193.908 345.5 196.733 350.602 196.135Z" fill="#B24BF3"/>
<path d="M395.74 192.247C401.543 191.762 406.616 187.761 407.063 183.305C407.495 178.902 403.206 175.731 397.488 176.212C391.792 176.699 386.768 180.653 386.242 185.053C385.72 189.507 389.959 192.724 395.74 192.247Z" fill="#B24BF3"/>
<path d="M442.534 189.684C448.862 189.377 454.201 185.303 454.457 180.57C454.7 175.899 449.852 172.358 443.629 172.657C437.422 172.964 432.118 176.995 431.76 181.665C431.408 186.397 436.221 189.981 442.534 189.684Z" fill="#B24BF3"/>
<path d="M490.338 188.755C497.115 188.67 502.621 184.555 502.645 179.548C502.659 174.609 497.285 170.67 490.632 170.748C483.984 170.833 478.488 174.904 478.341 179.842C478.201 184.849 483.565 188.832 490.338 188.755Z" fill="#B24BF3"/>
<path d="M538.434 189.394C545.446 189.557 550.926 185.49 550.696 180.291C550.458 175.166 544.704 170.874 537.825 170.702C530.936 170.537 525.435 174.557 525.53 179.681C525.638 184.88 531.413 189.221 538.434 189.394Z" fill="#B24BF3"/>
<path d="M586.06 191.634C593.121 192.05 598.426 188.075 597.941 182.741C597.453 177.485 591.462 172.884 584.532 172.458C577.577 172.038 572.218 175.956 572.566 181.213C572.93 186.547 578.975 191.207 586.06 191.634Z" fill="#B24BF3"/>
<path d="M632.508 195.408C639.477 196.062 644.508 192.192 643.786 186.759C643.063 181.406 636.955 176.533 630.107 175.864C623.222 175.201 618.11 178.998 618.701 184.358C619.314 189.797 625.502 194.743 632.508 195.408Z" fill="#B24BF3"/>
<path d="M44.1807 308.987C44.5473 308.728 45.0555 307.862 45.315 307.052C45.5738 306.242 45.4867 305.799 45.1194 306.06C44.7553 306.321 44.2496 307.185 43.9901 307.991C43.7313 308.798 43.8153 309.244 44.1807 308.987Z" fill="#B24BF3"/>
<path d="M59.4136 299.876C60.0033 299.549 60.7484 298.402 61.0774 297.316C61.4052 296.231 61.1927 295.622 60.603 295.953C60.0171 296.284 59.277 297.426 58.9479 298.506C58.6189 299.587 58.8264 300.201 59.4136 299.876Z" fill="#B24BF3"/>
<path d="M78.0492 290.996C78.9297 290.596 79.97 289.132 80.3723 287.727C80.7722 286.324 80.3843 285.52 79.5038 285.926C78.6302 286.332 77.5968 287.788 77.1938 289.182C76.7921 290.579 77.1731 291.391 78.0492 290.996Z" fill="#B24BF3"/>
<path d="M100.062 282.43C101.327 281.948 102.745 280.104 103.23 278.311C103.711 276.523 103.078 275.475 101.814 275.965C100.56 276.454 99.1519 278.287 98.6669 280.063C98.1818 281.846 98.8041 282.905 100.062 282.43Z" fill="#B24BF3"/>
<path d="M125.442 274.178C127.178 273.616 129.045 271.355 129.611 269.129C130.173 266.912 129.223 265.586 127.49 266.159C125.77 266.732 123.919 268.976 123.351 271.178C122.784 273.389 123.716 274.733 125.442 274.178Z" fill="#B24BF3"/>
<path d="M154.161 266.296C156.461 265.658 158.849 262.947 159.493 260.245C160.13 257.556 158.786 255.915 156.491 256.568C154.214 257.221 151.849 259.905 151.203 262.576C150.555 265.26 151.875 266.926 154.161 266.296Z" fill="#B24BF3"/>
<path d="M186.173 258.855C189.136 258.148 192.118 254.961 192.829 251.743C193.531 248.543 191.706 246.549 188.754 247.273C185.826 247.995 182.878 251.147 182.159 254.324C181.439 257.522 183.231 259.552 186.173 258.855Z" fill="#B24BF3"/>
<path d="M221.432 251.84C225.101 251.091 228.689 247.467 229.44 243.753C230.178 240.066 227.817 237.712 224.168 238.479C220.548 239.246 217.005 242.824 216.24 246.488C215.473 250.18 217.79 252.577 221.432 251.84Z" fill="#B24BF3"/>
<path d="M259.818 245.469C264.283 244.699 268.53 240.632 269.295 236.394C270.047 232.191 267.058 229.438 262.626 230.224C258.229 231.011 254.039 235.022 253.248 239.202C252.456 243.419 255.387 246.227 259.818 245.469Z" fill="#B24BF3"/>
<path d="M301.209 239.679C306.419 238.939 311.241 234.551 311.966 229.883C312.675 225.261 309.058 222.138 303.898 222.889C298.774 223.641 294.021 227.968 293.253 232.572C292.487 237.223 296.035 240.406 301.209 239.679Z" fill="#B24BF3"/>
<path d="M345.341 234.764C351.279 234.103 356.617 229.468 357.249 224.413C357.865 219.412 353.6 215.912 347.735 216.577C341.907 217.246 336.641 221.818 335.944 226.806C335.248 231.85 339.44 235.413 345.341 234.764Z" fill="#B24BF3"/>
<path d="M391.851 230.95C398.463 230.423 404.225 225.623 404.707 220.224C405.172 214.889 400.262 210.998 393.749 211.521C387.266 212.05 381.573 216.791 380.999 222.119C380.429 227.515 385.271 231.465 391.851 230.95Z" fill="#B24BF3"/>
<path d="M440.225 228.365C447.342 228.033 453.335 223.2 453.607 217.555C453.864 211.982 448.402 207.731 441.408 208.054C434.435 208.386 428.49 213.166 428.099 218.738C427.715 224.381 433.129 228.686 440.225 228.365Z" fill="#B24BF3"/>
<path d="M489.752 227.324C497.235 227.233 503.311 222.427 503.333 216.571C503.343 210.793 497.407 206.177 490.065 206.259C482.729 206.35 476.666 211.106 476.505 216.884C476.354 222.74 482.275 227.406 489.752 227.324Z" fill="#B24BF3"/>
<path d="M539.6 227.942C547.282 228.115 553.289 223.376 553.042 217.339C552.787 211.386 546.491 206.415 538.957 206.233C531.411 206.06 525.375 210.744 525.472 216.697C525.583 222.733 531.906 227.76 539.6 227.942Z" fill="#B24BF3"/>
<path d="M588.892 230.14C596.561 230.572 602.335 225.945 601.829 219.791C601.318 213.724 594.829 208.452 587.3 208.007C579.74 207.57 573.897 212.129 574.257 218.2C574.634 224.355 581.191 229.695 588.892 230.14Z" fill="#B24BF3"/>
<path d="M636.817 233.762C644.279 234.425 649.695 229.94 648.961 223.742C648.225 217.63 641.712 212.136 634.373 211.453C626.987 210.776 621.474 215.176 622.076 221.299C622.698 227.506 629.308 233.084 636.817 233.762Z" fill="#B24BF3"/>
<path d="M35.1206 340.675C35.5963 340.39 36.2148 339.26 36.5018 338.15C36.7882 337.042 36.6347 336.381 36.1591 336.671C35.6872 336.961 35.073 338.087 34.786 339.189C34.499 340.293 34.6475 340.958 35.1206 340.675Z" fill="#B24BF3"/>
<path d="M50.462 333.038C51.2147 332.681 52.1184 331.203 52.4781 329.736C52.8366 328.271 52.5169 327.382 51.7643 327.747C51.0167 328.11 50.1211 329.582 49.7608 331.038C49.4011 332.496 49.7138 333.391 50.462 333.038Z" fill="#B24BF3"/>
<path d="M69.2324 325.591C70.3423 325.159 71.5963 323.29 72.0325 321.415C72.4661 319.544 71.919 318.391 70.8098 318.835C69.71 319.277 68.466 321.137 68.0298 322.993C67.5936 324.854 68.1301 326.017 69.2324 325.591Z" fill="#B24BF3"/>
<path d="M91.4034 318.461C92.9939 317.941 94.7111 315.581 95.2381 313.192C95.7614 310.81 94.8978 309.319 93.3085 309.856C91.7343 310.391 90.0328 312.734 89.5052 315.097C88.9781 317.467 89.8248 318.974 91.4034 318.461Z" fill="#B24BF3"/>
<path d="M116.995 311.535C119.15 310.933 121.392 308.066 122.003 305.135C122.609 302.215 121.356 300.364 119.206 300.988C117.074 301.611 114.855 304.453 114.242 307.345C113.63 310.252 114.859 312.128 116.995 311.535Z" fill="#B24BF3"/>
<path d="M145.981 304.9C148.805 304.219 151.657 300.805 152.349 297.28C153.033 293.773 151.303 291.519 148.486 292.227C145.695 292.934 142.876 296.311 142.18 299.785C141.485 303.278 143.182 305.57 145.981 304.9Z" fill="#B24BF3"/>
<path d="M178.353 298.499C181.905 297.756 185.399 293.819 186.152 289.714C186.896 285.634 184.627 282.971 181.087 283.744C177.581 284.517 174.131 288.405 173.37 292.448C172.609 296.516 174.833 299.228 178.353 298.499Z" fill="#B24BF3"/>
<path d="M214.058 292.45C218.414 291.662 222.597 287.207 223.393 282.511C224.177 277.85 221.293 274.756 216.957 275.577C212.663 276.396 208.539 280.788 207.728 285.41C206.918 290.067 209.742 293.223 214.058 292.45Z" fill="#B24BF3"/>
<path d="M253.046 286.73C258.212 285.931 263.06 281.036 263.861 275.813C264.648 270.634 261.116 267.131 255.983 267.96C250.898 268.789 246.123 273.608 245.296 278.749C244.468 283.936 247.926 287.514 253.046 286.73Z" fill="#B24BF3"/>
<path d="M295.204 281.407C301.127 280.641 306.555 275.433 307.311 269.787C308.051 264.197 303.88 260.327 298.008 261.114C292.186 261.905 286.845 267.031 286.045 272.59C285.247 278.207 289.332 282.159 295.204 281.407Z" fill="#B24BF3"/>
<path d="M340.32 276.776C346.977 276.089 352.925 270.648 353.586 264.631C354.229 258.679 349.401 254.441 342.821 255.14C336.289 255.842 330.433 261.201 329.706 267.131C328.98 273.128 333.713 277.449 340.32 276.776Z" fill="#B24BF3"/>
<path d="M388.076 273.017C395.37 272.468 401.706 266.917 402.208 260.614C402.693 254.386 397.245 249.796 390.057 250.344C382.911 250.899 376.663 256.376 376.063 262.593C375.467 268.887 380.826 273.552 388.076 273.017Z" fill="#B24BF3"/>
<path d="M437.952 270.354C445.693 270.008 452.204 264.492 452.485 258.018C452.751 251.624 446.794 246.721 439.186 247.058C431.605 247.405 425.157 252.86 424.747 259.251C424.345 265.722 430.24 270.687 437.952 270.354Z" fill="#B24BF3"/>
<path d="M489.168 269.297C497.269 269.201 503.844 263.732 503.864 257.061C503.871 250.475 497.443 245.209 489.496 245.294C481.556 245.39 474.999 250.803 474.826 257.388C474.665 264.06 481.075 269.382 489.168 269.297Z" fill="#B24BF3"/>
<path d="M540.758 269.823C548.978 270.001 555.408 264.646 555.152 257.845C554.887 251.132 548.158 245.541 540.094 245.353C532.015 245.175 525.548 250.468 525.645 257.182C525.757 263.984 532.522 269.635 540.758 269.823Z" fill="#B24BF3"/>
<path d="M591.668 271.9C599.764 272.335 605.877 267.133 605.368 260.273C604.852 253.502 598.018 247.658 590.061 247.208C582.067 246.766 575.87 251.891 576.233 258.667C576.614 265.532 583.532 271.452 591.668 271.9Z" fill="#B24BF3"/>
<path d="M640.975 275.376C648.778 276.026 654.478 270.982 653.757 264.113C653.034 257.333 646.253 251.305 638.562 250.628C630.818 249.958 625.007 254.905 625.603 261.702C626.22 268.588 633.114 274.711 640.975 275.376Z" fill="#B24BF3"/>
<path d="M27.4936 374.278C28.099 373.982 28.8335 372.544 29.1343 371.065C29.4332 369.588 29.185 368.641 28.579 368.946C27.9793 369.25 27.2511 370.684 26.9509 372.15C26.6507 373.619 26.8926 374.571 27.4936 374.278Z" fill="#B24BF3"/>
<path d="M42.9077 368.239C43.8509 367.874 44.9169 366.018 45.2879 364.093C45.657 362.171 45.1926 360.924 44.2495 361.303C43.3157 361.681 42.2597 363.529 41.8881 365.435C41.5184 367.345 41.9727 368.6 42.9077 368.239Z" fill="#B24BF3"/>
<path d="M61.7604 362.414C63.1472 361.972 64.6375 359.621 65.0887 357.163C65.5362 354.71 64.7766 353.102 63.3898 353.564C62.0173 354.025 60.5415 356.363 60.0909 358.792C59.6403 361.228 60.3854 362.849 61.7604 362.414Z" fill="#B24BF3"/>
<path d="M84.0465 356.826C85.9993 356.301 88.0191 353.374 88.5574 350.29C89.0907 347.215 87.942 345.181 85.9899 345.734C84.0591 346.286 82.0606 349.192 81.5222 352.233C80.9852 355.286 82.1126 357.342 84.0465 356.826Z" fill="#B24BF3"/>
<path d="M109.79 351.337C112.382 350.739 114.984 347.239 115.599 343.525C116.208 339.827 114.603 337.356 112.013 337.991C109.452 338.625 106.88 342.092 106.264 345.749C105.648 349.421 107.223 351.924 109.79 351.337Z" fill="#B24BF3"/>
<path d="M138.963 346.074C142.309 345.403 145.583 341.283 146.273 336.88C146.956 332.498 144.802 329.544 141.462 330.261C138.159 330.976 134.927 335.05 134.233 339.38C133.54 343.732 135.653 346.731 138.963 346.074Z" fill="#B24BF3"/>
<path d="M171.578 340.897C175.716 340.171 179.679 335.477 180.428 330.424C181.164 325.402 178.414 321.983 174.285 322.76C170.204 323.536 166.295 328.168 165.541 333.132C164.789 338.126 167.485 341.606 171.578 340.897Z" fill="#B24BF3"/>
<path d="M207.614 335.836C212.566 335.077 217.218 329.868 217.998 324.218C218.765 318.609 215.384 314.748 210.449 315.562C205.568 316.376 200.985 321.507 200.192 327.054C199.401 332.642 202.715 336.579 207.614 335.836Z" fill="#B24BF3"/>
<path d="M247.027 330.95C252.794 330.181 258.114 324.533 258.898 318.353C259.666 312.226 255.629 307.953 249.89 308.773C244.212 309.594 238.977 315.15 238.172 321.218C237.368 327.337 241.32 331.701 247.027 330.95Z" fill="#B24BF3"/>
<path d="M289.753 326.266C296.279 325.524 302.188 319.561 302.933 312.968C303.661 306.437 298.984 301.809 292.503 302.592C286.086 303.377 280.277 309.238 279.496 315.718C278.716 322.26 283.292 326.99 289.753 326.266Z" fill="#B24BF3"/>
<path d="M335.653 321.995C342.879 321.322 349.288 315.161 349.945 308.249C350.582 301.409 345.281 296.458 338.124 297.155C331.03 297.857 324.731 303.915 324.014 310.72C323.3 317.596 328.49 322.65 335.653 321.995Z" fill="#B24BF3"/>
<path d="M384.467 318.366C392.292 317.821 399.066 311.595 399.57 304.465C400.056 297.417 394.173 292.171 386.45 292.723C378.781 293.283 372.116 299.416 371.517 306.447C370.924 313.558 376.699 318.897 384.467 318.366Z" fill="#B24BF3"/>
<path d="M435.721 315.705C443.979 315.354 450.919 309.201 451.205 301.953C451.474 294.789 445.099 289.27 436.977 289.615C428.89 289.969 422.031 296.049 421.614 303.207C421.206 310.452 427.501 316.042 435.721 315.705Z" fill="#B24BF3"/>
<path d="M488.588 314.563C497.166 314.465 504.127 308.41 504.146 301.019C504.15 293.716 497.34 287.87 488.923 287.957C480.517 288.055 473.578 294.05 473.401 301.353C473.235 308.745 480.022 314.65 488.588 314.563Z" fill="#B24BF3"/>
<path d="M541.905 314.979C550.513 315.157 557.251 309.268 556.993 301.806C556.724 294.436 549.684 288.311 541.235 288.12C532.765 287.94 525.979 293.766 526.076 301.137C526.189 308.599 533.276 314.788 541.905 314.979Z" fill="#B24BF3"/>
<path d="M594.376 317.03C602.814 317.456 609.206 311.71 608.706 304.188C608.198 296.76 601.092 290.388 592.786 289.94C584.434 289.501 577.942 295.163 578.301 302.601C578.679 310.13 585.887 316.588 594.376 317.03Z" fill="#B24BF3"/>
<path d="M644.921 320.287C652.97 320.901 658.896 315.326 658.213 307.845C657.526 300.452 650.566 293.954 642.615 293.302C634.601 292.656 628.549 298.121 629.124 305.54C629.719 313.049 636.805 319.655 644.921 320.287Z" fill="#B24BF3"/>
<path d="M21.425 409.452C22.1714 409.173 23.008 407.417 23.2938 405.527C23.5777 403.64 23.2036 402.35 22.4572 402.643C21.7202 402.936 20.8917 404.687 20.6066 406.558C20.3214 408.431 20.6874 409.725 21.425 409.452Z" fill="#B24BF3"/>
<path d="M36.8833 405.171C38.0433 404.828 39.2691 402.559 39.6232 400.102C39.9741 397.648 39.3199 395.961 38.1599 396.326C37.0149 396.691 35.801 398.95 35.4482 401.378C35.0954 403.81 35.7365 405.508 36.8833 405.171Z" fill="#B24BF3"/>
<path d="M55.8049 400.99C57.4688 400.585 59.1577 397.772 59.5776 394.706C59.9944 391.647 58.986 389.529 57.3215 389.966C55.679 390.402 54.0089 393.199 53.5884 396.223C53.1704 399.253 54.1605 401.386 55.8049 400.99Z" fill="#B24BF3"/>
<path d="M78.1754 397.024C80.4716 396.551 82.7314 393.107 83.2252 389.332C83.7141 385.568 82.252 382.946 79.9564 383.463C77.691 383.979 75.4562 387.399 74.963 391.114C74.471 394.84 75.9074 397.486 78.1754 397.024Z" fill="#B24BF3"/>
<path d="M104.014 393.119C107.022 392.585 109.913 388.507 110.474 384.013C111.028 379.536 109.043 376.399 106.036 376.989C103.069 377.578 100.212 381.621 99.6513 386.036C99.0929 390.467 101.043 393.639 104.014 393.119Z" fill="#B24BF3"/>
<path d="M133.317 389.278C137.108 388.69 140.682 383.98 141.303 378.764C141.914 373.571 139.343 369.914 135.554 370.569C131.815 371.223 128.286 375.884 127.664 381.002C127.046 386.142 129.573 389.85 133.317 389.278Z" fill="#B24BF3"/>
<path d="M166.086 385.447C170.697 384.817 174.974 379.514 175.64 373.616C176.296 367.748 173.096 363.592 168.492 364.298C163.946 365.005 159.727 370.241 159.057 376.023C158.391 381.836 161.532 386.059 166.086 385.447Z" fill="#B24BF3"/>
<path d="M202.318 381.572C207.739 380.917 212.695 375.106 213.388 368.612C214.068 362.159 210.235 357.556 204.825 358.292C199.483 359.029 194.598 364.756 193.899 371.119C193.203 377.523 196.965 382.209 202.318 381.572Z" fill="#B24BF3"/>
<path d="M241.991 377.735C248.216 377.07 253.833 370.819 254.533 363.797C255.217 356.826 250.738 351.816 244.531 352.56C238.399 353.305 232.869 359.456 232.155 366.338C231.447 373.27 235.84 378.382 241.991 377.735Z" fill="#B24BF3"/>
<path d="M285.085 373.854C292.019 373.206 298.196 366.667 298.868 359.275C299.523 351.945 294.448 346.622 287.544 347.337C280.716 348.057 274.641 354.482 273.945 361.735C273.253 369.047 278.227 374.484 285.085 373.854Z" fill="#B24BF3"/>
<path d="M331.511 370.22C339.134 369.617 345.824 362.868 346.432 355.172C347.022 347.551 341.346 341.937 333.776 342.588C326.28 343.245 319.707 349.873 319.055 357.437C318.408 365.072 323.966 370.805 331.511 370.22Z" fill="#B24BF3"/>
<path d="M381.129 366.881C389.306 366.373 396.351 359.59 396.833 351.746C397.298 343.985 391.094 338.151 383.002 338.68C374.976 339.217 368.055 345.888 367.494 353.617C366.942 361.426 373.023 367.371 381.129 366.881Z" fill="#B24BF3"/>
<path d="M433.564 364.364C442.213 364.02 449.475 357.303 449.759 349.357C450.027 341.499 443.322 335.421 434.803 335.762C426.328 336.113 419.168 342.744 418.761 350.593C418.363 358.529 424.966 364.693 433.564 364.364Z" fill="#B24BF3"/>
<path d="M488.012 363.065C496.909 362.966 504.129 356.429 504.148 348.442C504.153 340.545 497.082 334.218 488.348 334.304C479.627 334.403 472.437 340.88 472.259 348.776C472.094 356.763 479.132 363.151 488.012 363.065Z" fill="#B24BF3"/>
<path d="M543.041 363.558C551.994 363.735 559.008 357.326 558.751 349.227C558.484 341.22 551.168 334.581 542.37 334.389C533.547 334.21 526.471 340.55 526.568 348.559C526.68 356.66 534.058 363.367 543.041 363.558Z" fill="#B24BF3"/>
<path d="M596.965 365.547C605.681 365.951 612.315 359.666 611.841 351.515C611.359 343.455 604.038 336.59 595.437 336.155C586.778 335.73 580.024 341.913 580.374 349.99C580.743 358.16 588.185 365.127 596.965 365.547Z" fill="#B24BF3"/>
<path d="M648.539 368.519C656.794 369.068 662.944 362.945 662.328 354.864C661.706 346.868 654.61 339.926 646.429 339.318C638.172 338.716 631.889 344.714 632.422 352.755C632.974 360.883 640.204 367.951 648.539 368.519Z" fill="#B24BF3"/>
<path d="M17.0096 445.907C17.9183 445.676 18.849 443.578 19.089 441.215C19.3278 438.856 18.7863 437.151 17.877 437.403C16.9827 437.655 16.0627 439.749 15.8221 442.083C15.5833 444.42 16.1141 446.13 17.0096 445.907Z" fill="#B24BF3"/>
<path d="M32.5106 443.425C33.9 443.147 35.263 440.471 35.5569 437.444C35.8477 434.423 34.9597 432.23 33.5691 432.541C32.2004 432.852 30.8543 435.519 30.561 438.503C30.2689 441.492 31.1413 443.693 32.5106 443.425Z" fill="#B24BF3"/>
<path d="M51.4777 441.039C53.4499 440.715 55.3268 437.423 55.6734 433.683C56.0162 429.95 54.6995 427.233 52.7261 427.604C50.7839 427.975 48.9296 431.252 48.583 434.932C48.2396 438.618 49.5343 441.351 51.4777 441.039Z" fill="#B24BF3"/>
<path d="M73.9078 438.806C76.5837 438.435 79.0742 434.461 79.4753 429.929C79.872 425.407 78.0301 422.105 75.3542 422.539C72.7196 422.974 70.2598 426.924 69.8581 431.375C69.4608 435.838 71.2719 439.164 73.9078 438.806Z" fill="#B24BF3"/>
<path d="M99.8172 436.498C103.239 436.09 106.369 431.481 106.817 426.206C107.258 420.946 104.85 417.094 101.428 417.581C98.0594 418.069 94.9673 422.644 94.5198 427.818C94.0768 433.005 96.4463 436.891 99.8172 436.498Z" fill="#B24BF3"/>
<path d="M129.202 434.158C133.41 433.718 137.211 428.504 137.698 422.516C138.176 416.548 135.161 412.164 130.952 412.697C126.806 413.232 123.054 418.401 122.568 424.267C122.085 430.152 125.053 434.582 129.202 434.158Z" fill="#B24BF3"/>
<path d="M162.063 431.713C167.058 431.25 171.519 425.496 172.035 418.871C172.541 412.272 168.91 407.408 163.916 407.976C158.994 408.545 154.59 414.239 154.073 420.725C153.563 427.237 157.136 432.159 162.063 431.713Z" fill="#B24BF3"/>
<path d="M198.399 429.15C204.156 428.673 209.249 422.459 209.782 415.286C210.303 408.146 206.069 402.867 200.316 403.454C194.641 404.043 189.614 410.183 189.079 417.203C188.551 424.257 192.718 429.61 198.399 429.15Z" fill="#B24BF3"/>
<path d="M238.198 426.598C244.731 426.111 250.463 419.465 251.005 411.773C251.534 404.125 246.677 398.447 240.151 399.044C233.709 399.646 228.056 406.201 227.508 413.728C226.968 421.296 231.747 427.066 238.198 426.598Z" fill="#B24BF3"/>
<path d="M281.464 423.861C288.675 423.38 294.951 416.441 295.483 408.388C295.999 400.391 290.584 394.423 283.387 395.007C276.276 395.597 270.09 402.428 269.548 410.313C269.014 418.249 274.339 424.324 281.464 423.861Z" fill="#B24BF3"/>
<path d="M328.166 421.178C336.032 420.715 342.823 413.545 343.322 405.196C343.806 396.914 337.834 390.689 329.995 391.238C322.241 391.793 315.558 398.839 315.036 407.027C314.522 415.276 320.387 421.623 328.166 421.178Z" fill="#B24BF3"/>
<path d="M378.255 418.568C386.697 418.15 393.905 410.881 394.331 402.361C394.738 393.922 388.25 387.502 379.863 387.972C371.554 388.451 364.471 395.592 363.997 403.969C363.534 412.42 369.897 418.968 378.255 418.568Z" fill="#B24BF3"/>
<path d="M431.556 416.328C440.48 416.015 447.963 408.798 448.235 400.217C448.49 391.726 441.526 385.129 432.708 385.453C423.949 385.787 416.591 392.898 416.22 401.366C415.861 409.919 422.7 416.624 431.556 416.328Z" fill="#B24BF3"/>
<path d="M487.44 415.043C496.655 414.943 504.137 407.919 504.156 399.331C504.159 390.834 496.828 384.021 487.775 384.108C478.74 384.207 471.303 391.168 471.127 399.663C470.964 408.251 478.248 415.128 487.44 415.043Z" fill="#B24BF3"/>
<path d="M544.149 415.395C553.303 415.565 560.483 408.718 560.241 400.095C559.986 391.563 552.511 384.507 543.498 384.319C534.449 384.143 527.185 390.912 527.28 399.449C527.392 408.077 534.951 415.21 544.149 415.395Z" fill="#B24BF3"/>
<path d="M599.303 417.15C608.083 417.493 614.827 410.777 614.42 402.169C614.003 393.644 606.653 386.444 597.951 386.048C589.18 385.662 582.305 392.258 582.624 400.819C582.961 409.468 590.444 416.789 599.303 417.15Z" fill="#B24BF3"/>
<path d="M651.571 419.575C659.827 419.998 666.091 413.442 665.601 404.962C665.102 396.551 658.069 389.356 649.853 388.841C641.552 388.333 635.167 394.757 635.61 403.243C636.071 411.806 643.227 419.133 651.571 419.575Z" fill="#B24BF3"/>
<path d="M2.25354 483.995C2.90467 483.881 3.53136 482.022 3.65482 479.838C3.77765 477.656 3.35087 475.999 2.69974 476.134C2.06115 476.27 1.44386 478.127 1.31978 480.285C1.19695 482.444 1.61432 484.104 2.25354 483.995Z" fill="#B24BF3"/>
<path d="M14.3334 483.221C15.4157 483.083 16.4153 480.657 16.57 477.798C16.723 474.941 15.9722 472.768 14.8899 472.94C13.8283 473.113 12.8425 475.535 12.6877 478.354C12.5342 481.176 13.2712 483.352 14.3334 483.221Z" fill="#B24BF3"/>
<path d="M29.8783 482.596C31.5115 482.433 32.983 479.372 33.1703 475.754C33.3546 472.139 32.1839 469.386 30.5495 469.597C28.9465 469.81 27.4944 472.865 27.3083 476.426C27.1234 479.99 28.2746 482.75 29.8783 482.596Z" fill="#B24BF3"/>
<path d="M48.8931 482.016C51.1743 481.832 53.1941 478.117 53.4116 473.715C53.6253 469.317 51.9558 465.963 49.674 466.214C47.4336 466.468 45.4413 470.171 45.2239 474.495C45.0096 478.825 46.6521 482.19 48.8931 482.016Z" fill="#B24BF3"/>
<path d="M71.3778 481.475C74.3947 481.271 77.033 476.888 77.2793 471.68C77.5212 466.48 75.2795 462.51 72.2627 462.799C69.2984 463.091 66.6952 467.458 66.4489 472.565C66.2064 477.679 68.4129 481.667 71.3778 481.475Z" fill="#B24BF3"/>
<path d="M97.3361 480.843C101.126 480.625 104.408 475.618 104.679 469.656C104.944 463.704 102.097 459.156 98.3069 459.478C94.5812 459.805 91.3419 464.789 91.0711 470.627C90.8054 476.476 93.6092 481.049 97.3361 480.843Z" fill="#B24BF3"/>
<path d="M126.772 479.975C131.298 479.747 135.189 474.23 135.477 467.65C135.757 461.083 132.327 456.058 127.801 456.402C123.347 456.752 119.505 462.24 119.217 468.679C118.935 475.134 122.317 480.189 126.772 479.975Z" fill="#B24BF3"/>
<path d="M159.678 479.031C164.945 478.796 169.447 472.806 169.749 465.655C170.041 458.519 166.021 453.051 160.753 453.413C155.566 453.782 151.117 459.733 150.817 466.731C150.523 473.744 154.489 479.251 159.678 479.031Z" fill="#B24BF3"/>
<path d="M196.054 477.996C202.051 477.756 207.152 471.341 207.464 463.672C207.764 456.024 203.16 450.154 197.163 450.53C191.252 450.911 186.211 457.279 185.899 464.782C185.596 472.304 190.141 478.221 196.054 477.996Z" fill="#B24BF3"/>
<path d="M235.9 476.859C242.6 476.615 248.275 469.828 248.592 461.706C248.898 453.611 243.727 447.39 237.028 447.772C230.418 448.161 224.808 454.889 224.491 462.835C224.184 470.806 229.288 477.086 235.9 476.859Z" fill="#B24BF3"/>
<path d="M279.216 475.607C286.575 475.363 292.786 468.264 293.104 459.766C293.409 451.302 287.703 444.786 280.347 445.167C273.081 445.557 266.942 452.582 266.622 460.898C266.314 469.246 271.948 475.835 279.216 475.607Z" fill="#B24BF3"/>
<path d="M325.998 474.308C333.995 474.065 340.722 466.695 341.035 457.866C341.333 449.083 335.104 442.309 327.113 442.681C319.215 443.062 312.569 450.341 312.251 458.984C311.946 467.668 318.094 474.535 325.998 474.308Z" fill="#B24BF3"/>
<path d="M376.244 472.893C384.806 472.656 391.986 465.105 392.278 456.055C392.555 447.067 385.847 440.108 377.3 440.452C368.843 440.807 361.762 448.243 361.457 457.115C361.163 466.039 367.774 473.112 376.244 472.893Z" fill="#B24BF3"/>
<path d="M429.933 471.481C439.011 471.269 446.576 463.641 446.803 454.482C447.012 445.404 439.844 438.308 430.818 438.578C421.871 438.862 414.431 446.357 414.16 455.368C413.9 464.449 420.944 471.676 429.933 471.481Z" fill="#B24BF3"/>
<path d="M486.88 470.494C496.406 470.399 504.149 462.881 504.167 453.687C504.17 444.585 496.577 437.283 487.206 437.367C477.866 437.466 470.199 444.908 470.036 454.006C469.887 463.193 477.402 470.574 486.88 470.494Z" fill="#B24BF3"/>
<path d="M545.173 470.661C554.468 470.802 561.792 463.504 561.591 454.38C561.377 445.341 553.788 437.892 544.59 437.716C535.339 437.552 527.897 444.744 527.988 453.803C528.095 462.952 535.806 470.505 545.173 470.661Z" fill="#B24BF3"/>
<path d="M601.092 471.91C609.897 472.116 616.786 464.948 616.511 455.927C616.225 446.968 608.906 439.493 600.13 439.178C591.269 438.875 584.266 445.915 584.507 454.96C584.765 464.081 592.198 471.686 601.092 471.91Z" fill="#B24BF3"/>
<path d="M653.636 473.208C661.841 473.43 668.237 466.49 667.941 457.725C667.634 449.008 660.759 441.687 652.564 441.325C644.28 440.973 637.794 447.808 638.078 456.649C638.377 465.545 645.341 472.97 653.636 473.208Z" fill="#B24BF3"/>
<path d="M1.32084 519.849C2.08603 519.844 2.71961 517.753 2.73904 515.173C2.75721 512.593 2.15496 510.533 1.38915 510.567C0.642138 510.604 0.0198355 512.696 0.00040818 515.241C-0.0177658 517.788 0.573207 519.849 1.32084 519.849Z" fill="#B24BF3"/>
<path d="M13.4499 520.943C14.7057 520.942 15.7392 518.241 15.7636 514.904C15.7855 511.567 14.7903 508.904 13.5338 508.951C12.3062 509.001 11.2903 511.702 11.2652 514.988C11.2439 518.275 12.2222 520.939 13.4499 520.943Z" fill="#B24BF3"/>
<path d="M29.0467 522.144C30.9104 522.148 32.4396 518.789 32.4684 514.635C32.4947 510.481 31.0113 507.169 29.1469 507.229C27.322 507.295 25.8186 510.652 25.7892 514.736C25.7635 518.819 27.2218 522.133 29.0467 522.144Z" fill="#B24BF3"/>
<path d="M48.1106 523.338C50.6681 523.349 52.7607 519.337 52.7945 514.367C52.8239 509.399 50.7834 505.439 48.2253 505.514C45.7192 505.595 43.6599 509.606 43.6261 514.482C43.5966 519.358 45.6045 523.319 48.1106 523.338Z" fill="#B24BF3"/>
<path d="M70.642 524.512C73.9622 524.53 76.6738 519.873 76.7121 514.1C76.7446 508.328 74.09 503.731 70.7704 503.82C67.5135 503.917 64.8426 508.572 64.805 514.228C64.7718 519.885 67.3857 524.485 70.642 524.512Z" fill="#B24BF3"/>
<path d="M96.6387 525.406C100.688 525.429 103.991 520.253 104.032 513.834C104.067 507.416 100.825 502.305 96.7754 502.405C92.799 502.513 89.5415 507.685 89.5008 513.971C89.4663 520.258 92.6624 525.373 96.6387 525.406Z" fill="#B24BF3"/>
<path d="M126.1 526.169C130.869 526.196 134.757 520.561 134.801 513.57C134.836 506.581 131.013 501.015 126.244 501.121C121.555 501.238 117.718 506.868 117.675 513.713C117.638 520.56 121.411 526.131 126.1 526.169Z" fill="#B24BF3"/>
<path d="M159.028 526.778C164.485 526.809 168.929 520.783 168.974 513.308C169.011 505.835 164.632 499.881 159.175 499.993C153.803 500.115 149.414 506.136 149.368 513.456C149.332 520.777 153.657 526.737 159.028 526.778Z" fill="#B24BF3"/>
<path d="M195.422 527.348C201.568 527.381 206.571 520.983 206.617 513.045C206.654 505.111 201.719 498.788 195.572 498.904C189.516 499.031 184.569 505.422 184.522 513.196C184.485 520.973 189.365 527.303 195.422 527.348Z" fill="#B24BF3"/>
<path d="M235.28 527.73C242.045 527.763 247.55 521.078 247.598 512.784C247.634 504.493 242.197 497.884 235.432 498.002C228.758 498.132 223.311 504.809 223.263 512.936C223.226 521.067 228.605 527.684 235.28 527.73Z" fill="#B24BF3"/>
<path d="M278.605 528.195C286.035 528.23 292.079 521.219 292.128 512.522C292.164 503.829 286.19 496.899 278.76 497.019C271.423 497.151 265.439 504.151 265.39 512.676C265.354 521.206 271.269 528.147 278.605 528.195Z" fill="#B24BF3"/>
<path d="M325.395 528.524C333.431 528.559 339.965 521.285 340.015 512.261C340.05 503.244 333.585 496.055 325.55 496.175C317.609 496.308 311.135 503.568 311.086 512.417C311.049 521.27 317.454 528.475 325.395 528.524Z" fill="#B24BF3"/>
<path d="M375.651 528.856C384.298 528.892 391.327 521.352 391.377 512C391.413 502.658 384.452 495.21 375.806 495.331C367.255 495.464 360.287 502.984 360.238 512.156C360.202 521.337 367.101 528.806 375.651 528.856Z" fill="#B24BF3"/>
<path d="M429.373 528.953C438.507 528.987 445.931 521.288 445.981 511.741C446.015 502.214 438.656 494.62 429.523 494.733C420.483 494.86 413.123 502.528 413.073 511.896C413.038 521.275 420.332 528.905 429.373 528.953Z" fill="#B24BF3"/>
<path d="M486.56 529.036C496.169 529.065 504.001 521.22 504.02 511.509C504.022 501.887 496.244 494.17 486.672 494.238C477.17 494.32 469.442 502.096 469.393 511.637C469.359 521.207 477.041 528.991 486.56 529.036Z" fill="#B24BF3"/>
<path d="M545.639 528.876C554.926 528.829 562.421 521.156 562.388 511.722C562.339 502.308 554.785 494.619 545.502 494.508C536.132 494.412 528.559 502.026 528.59 511.574C528.636 521.168 536.26 528.907 545.639 528.876Z" fill="#B24BF3"/>
<path d="M601.672 528.552C610.359 528.506 617.368 521.094 617.333 511.981C617.284 502.877 610.21 495.422 601.523 495.297C592.747 495.184 585.678 502.569 585.713 511.83C585.761 521.104 592.895 528.584 601.672 528.552Z" fill="#B24BF3"/>
<path d="M654.239 528.233C662.33 528.187 668.856 521.034 668.821 512.241C668.772 503.455 662.18 496.25 654.088 496.123C645.909 496.009 639.325 503.145 639.36 512.09C639.409 521.044 646.059 528.264 654.239 528.233Z" fill="#B24BF3"/>
<path d="M2.18882 555.757C3.07683 555.902 3.6935 553.609 3.57067 550.631C3.44595 547.651 2.62812 545.155 1.74011 545.049C0.876532 544.951 0.276166 547.247 0.398997 550.183C0.523708 553.116 1.32587 555.61 2.18882 555.757Z" fill="#B24BF3"/>
<path d="M14.3773 558.712C15.818 558.895 16.8596 555.959 16.7098 552.149C16.5581 548.336 15.2716 545.15 13.8314 545.028C12.427 544.915 11.4093 547.855 11.5591 551.603C11.7107 555.347 12.9729 558.528 14.3773 558.712Z" fill="#B24BF3"/>
<path d="M30.0276 561.674C32.1226 561.892 33.6724 558.31 33.4988 553.663C33.3215 549.011 31.4865 545.135 29.3928 544.999C27.3473 544.873 25.8294 548.464 26.003 553.027C26.1798 557.586 27.9821 561.453 30.0276 561.674Z" fill="#B24BF3"/>
<path d="M49.1353 564.516C51.9365 564.765 54.0422 560.585 53.8486 555.167C53.6505 549.743 51.2278 545.234 48.4271 545.088C45.6872 544.953 43.6217 549.145 43.8153 554.458C44.0133 559.767 46.3954 564.264 49.1353 564.516Z" fill="#B24BF3"/>
<path d="M71.7048 567.326C75.2713 567.603 77.9805 562.838 77.7699 556.667C77.5537 550.49 74.498 545.361 70.9321 545.207C67.439 545.066 64.7774 549.848 64.988 555.895C65.2036 561.933 68.2117 567.044 71.7048 567.326Z" fill="#B24BF3"/>
<path d="M97.7216 569.785C101.987 570.078 105.254 564.878 105.034 558.152C104.807 551.416 101.178 545.832 96.9131 545.674C92.7281 545.529 89.5138 550.751 89.7338 557.343C89.96 563.925 93.5365 569.488 97.7216 569.785Z" fill="#B24BF3"/>
<path d="M127.199 572.159C132.162 572.463 135.988 566.865 135.761 559.631C135.526 552.386 131.326 546.385 126.363 546.224C121.485 546.077 117.716 551.703 117.944 558.794C118.178 565.875 122.322 571.848 127.199 572.159Z" fill="#B24BF3"/>
<path d="M160.131 574.301C165.721 574.61 170.054 568.711 169.825 561.101C169.586 553.475 164.875 547.164 159.284 547.003C153.781 546.855 149.508 552.786 149.738 560.253C149.977 567.707 154.629 573.985 160.131 574.301Z" fill="#B24BF3"/>
<path d="M196.527 576.383C202.731 576.694 207.56 570.521 207.33 562.564C207.088 554.591 201.879 547.996 195.674 547.833C189.559 547.685 184.792 553.897 185.023 561.711C185.263 569.508 190.412 576.064 196.527 576.383Z" fill="#B24BF3"/>
<path d="M236.386 578.464C243.215 578.776 248.548 572.327 248.318 564.023C248.075 555.699 242.357 548.816 235.528 548.653C228.791 548.505 223.521 555.001 223.754 563.164C223.995 571.308 229.649 578.143 236.386 578.464Z" fill="#B24BF3"/>
<path d="M279.706 580.466C287.135 580.776 292.956 574.081 292.727 565.472C292.484 556.836 286.28 549.698 278.851 549.534C271.514 549.386 265.759 556.139 265.991 564.614C266.234 573.066 272.371 580.147 279.706 580.466Z" fill="#B24BF3"/>
<path d="M326.485 582.442C334.518 582.746 340.835 575.812 340.608 566.904C340.368 557.962 333.673 550.571 325.638 550.408C317.696 550.261 311.452 557.269 311.682 566.055C311.925 574.809 318.547 582.127 326.485 582.442Z" fill="#B24BF3"/>
<path d="M376.712 584.282C385.309 584.57 392.101 577.439 391.884 568.298C391.652 559.106 384.498 551.506 375.893 551.345C367.381 551.201 360.675 558.427 360.899 567.474C361.136 576.479 368.207 583.982 376.712 584.282Z" fill="#B24BF3"/>
<path d="M430.334 585.8C439.392 586.038 446.606 578.798 446.428 569.57C446.234 560.266 438.698 552.568 429.609 552.416C420.612 552.279 413.509 559.643 413.715 568.84C413.935 577.978 421.361 585.548 430.334 585.8Z" fill="#B24BF3"/>
<path d="M487.038 586.766C496.401 586.848 503.99 579.479 503.986 570.293C503.967 561.018 496.231 553.432 486.726 553.344C477.283 553.271 469.786 560.73 469.92 569.992C470.068 579.168 477.711 586.669 487.038 586.766Z" fill="#B24BF3"/>
<path d="M544.902 586.347C554.025 586.181 561.533 578.726 561.715 569.662C561.885 560.522 554.611 553.181 545.421 553.292C536.15 553.419 528.515 560.992 528.411 570.177C528.324 579.274 535.717 586.5 544.902 586.347Z" fill="#B24BF3"/>
<path d="M600.679 584.737C609.186 584.474 616.24 577.187 616.459 568.41C616.665 559.585 609.943 552.529 601.422 552.667C592.815 552.821 585.67 560.217 585.464 569.158C585.273 578.038 592.089 584.987 600.679 584.737Z" fill="#B24BF3"/>
<path d="M653.194 582.777C661.049 582.491 667.588 575.46 667.814 567.028C668.027 558.564 661.839 551.81 653.98 551.952C646.037 552.109 639.427 559.219 639.205 567.817C638.995 576.376 645.255 583.052 653.194 582.777Z" fill="#B24BF3"/>
<path d="M4.84359 591.241C5.84504 591.572 6.41094 589.158 6.11013 585.845C5.80744 582.528 4.75085 579.618 3.75066 579.337C2.77741 579.069 2.2347 581.49 2.53613 584.752C2.83882 588.009 3.8716 590.914 4.84359 591.241Z" fill="#B24BF3"/>
<path d="M17.0866 595.91C18.679 596.311 19.6754 593.277 19.3169 589.127C18.9553 584.969 17.3755 581.339 15.7837 581.01C14.2339 580.698 13.2694 583.745 13.6285 587.824C13.9895 591.896 15.538 595.514 17.0866 595.91Z" fill="#B24BF3"/>
<path d="M32.7812 600.527C35.0517 600.99 36.5551 597.352 36.1478 592.391C35.7354 587.418 33.5665 583.094 31.2966 582.726C29.0819 582.375 27.6198 586.035 28.0284 590.905C28.4395 595.765 30.5684 600.069 32.7812 600.527Z" fill="#B24BF3"/>
<path d="M51.922 605.013C54.9176 605.526 56.975 601.333 56.5275 595.631C56.0744 589.914 53.2857 584.959 50.2901 584.561C47.3629 584.181 45.355 588.404 45.8037 593.999C46.2574 599.579 48.996 604.504 51.922 605.013Z" fill="#B24BF3"/>
<path d="M74.5029 609.282C78.2198 609.83 80.8381 605.165 80.3643 598.841C79.8824 592.499 76.4877 587.018 72.7708 586.599C69.1316 586.199 66.5697 590.904 67.046 597.108C67.5273 603.294 70.8656 608.736 74.5029 609.282Z" fill="#B24BF3"/>
</svg>
