<svg width="800" height="800" viewBox="0 0 800 800" fill="none" xmlns="http://www.w3.org/2000/svg">
<path d="M25.9783 765.387H129.98C144.328 765.387 155.958 753.756 155.958 739.408V284.82C155.958 270.47 144.328 258.842 129.98 258.842H25.9783C11.6287 258.842 0 270.47 0 284.82V739.408C0 753.754 11.6287 765.387 25.9783 765.387Z" fill="#4A148C"/>
<path d="M25.9783 178.923H129.98C144.328 178.923 155.958 167.293 155.958 152.945V60.5908C155.958 46.2427 144.328 34.6125 129.98 34.6125H25.9783C11.6287 34.6125 0 46.2427 0 60.5908V152.945C0 167.293 11.6287 178.923 25.9783 178.923Z" fill="#4A148C"/>
<path d="M760.87 311.568C746.255 292.331 724.706 276.511 696.212 264.111C667.718 251.72 636.267 245.52 601.855 245.52C531.999 245.52 472.806 272.18 424.278 325.51C414.622 336.121 407.601 333.801 407.601 319.451V284.82C407.601 270.47 395.97 258.842 381.622 258.842H288.719C274.37 258.842 262.741 270.47 262.741 284.82V739.408C262.741 753.756 274.371 765.387 288.719 765.387H392.721C407.07 765.387 418.699 753.756 418.699 739.408V581.314C418.699 515.452 422.676 470.308 430.63 445.888C438.581 421.469 453.294 401.86 474.754 387.059C496.217 372.257 520.45 364.853 547.464 364.853C568.554 364.853 586.594 370.034 601.582 380.398C616.568 390.761 627.392 405.277 634.052 423.967C640.715 442.653 644.044 483.816 644.044 547.461V739.406C644.044 753.754 655.673 765.386 670.021 765.386H774.022C788.37 765.386 799.999 753.754 799.999 739.406V481.965C799.999 436.456 797.131 401.488 791.401 377.068C785.671 352.649 775.493 330.815 760.87 311.568Z" fill="#4A148C"/>
</svg>
