<svg width="84" height="28" viewBox="0 0 84 28" fill="none" xmlns="http://www.w3.org/2000/svg">
<path d="M12.3383 10.4463C13.6138 10.9778 13.7555 12.395 13.667 12.9708C13.5607 13.0771 13.2684 12.7493 13.1355 12.5722C9.73407 8.32041 4.45478 16.0267 2.24031 20.4114C1.886 21.4633 1.70884 23.2549 3.83473 22.0058C6.49209 20.4444 10.0795 12.9708 11.4082 13.5023C12.4711 13.9274 12.6483 14.388 12.604 14.5652C9.41518 21.0492 10.921 23.3788 12.0725 23.7331C8.45853 24.9023 8.61797 19.7913 9.14945 17.0897C7.55503 20.2785 4.23333 23.3345 3.56899 23.7331C2.90465 24.1317 -2.2772 24.2646 1.17737 17.8869C3.94102 12.7848 7.37787 10.6235 8.75084 10.1806C9.81379 9.83767 11.0627 9.91482 12.3383 10.4463Z" fill="#F8FAFC"/>
<path d="M49.2755 10.4463C50.5511 10.9778 50.6928 12.395 50.6042 12.9708C50.4979 13.0771 50.2056 12.7493 50.0727 12.5722C46.6713 8.32041 41.392 16.0267 39.1776 20.4114C38.8233 21.4633 38.6461 23.2549 40.772 22.0058C43.4293 20.4444 47.0168 12.9708 48.3455 13.5023C49.4084 13.9274 49.5856 14.388 49.5413 14.5652C46.3524 21.0492 47.8583 23.3788 49.0098 23.7331C45.3958 24.9023 45.5552 19.7913 46.0867 17.0897C44.4923 20.2785 41.1706 23.3345 40.5062 23.7331C39.8419 24.1317 34.6601 24.2646 38.1146 17.8869C40.8783 12.7848 44.3151 10.6235 45.6881 10.1806C46.751 9.83767 48 9.91482 49.2755 10.4463Z" fill="#F8FAFC"/>
<path d="M82.2268 10.4463C83.5024 10.9778 83.6441 12.395 83.5555 12.9708C83.4492 13.0771 83.1569 12.7493 83.024 12.5722C79.6226 8.32041 74.3433 16.0267 72.1289 20.4114C71.7745 21.4633 71.5974 23.2549 73.7233 22.0058C76.3806 20.4444 79.9681 12.9708 81.2968 13.5023C82.3597 13.9274 82.5369 14.388 82.4926 14.5652C79.3037 21.0492 80.8096 23.3788 81.9611 23.7331C78.3471 24.9023 78.5065 19.7913 79.038 17.0897C77.4436 20.2785 74.1219 23.3345 73.4575 23.7331C72.7932 24.1317 67.6114 24.2646 71.0659 17.8869C73.8296 12.7848 77.2664 10.6235 78.6394 10.1806C79.7023 9.83767 80.9513 9.91482 82.2268 10.4463Z" fill="#F8FAFC"/>
<path d="M16.9887 12.9708C17.6264 10.7387 16.7229 9.8263 16.1914 9.64915C15.673 9.22397 16.5069 9.11768 16.9887 9.11768C20.3901 9.22397 19.4689 13.5909 18.5831 15.7611C20.3104 13.8566 24.0838 9.9946 25.3593 9.78202C26.6349 9.56943 26.7766 10.1363 26.688 10.4464C24.0307 13.2366 24.5621 15.2296 25.2265 15.3625C25.7579 15.4688 25.7137 15.8497 25.6251 16.0268C22.9677 16.5583 22.6577 13.9452 22.8348 12.5722C18.7957 14.9107 16.9001 20.0128 16.4572 22.2716C16.3686 22.7588 15.9523 23.7066 14.9956 23.6003C14.039 23.494 14.1541 22.6702 14.3313 22.2716L16.9887 12.9708Z" fill="#F8FAFC"/>
<path d="M29.8765 0.0822754C34.1278 -0.449138 34.4825 1.72069 34.1284 2.87231L29.3452 14.6985C29.5224 14.477 29.9835 14.0865 30.4087 14.2991C30.8338 14.5116 31.2055 14.4762 31.3384 14.4319C32.8 12.9703 36.0159 9.86146 37.1851 9.11743C38.3537 8.3739 38.8229 8.80746 38.9116 9.11743C39.1773 14.8302 33.9966 16.5575 33.4644 16.6907C33.0392 16.797 33.1987 17.0015 33.3315 17.0901C35.1914 18.8178 34.6598 25.7265 34.2612 26.6565C33.9425 27.3998 33.6858 26.9664 33.5972 26.6565C33.8628 21.4759 30.6758 18.0214 30.4087 17.6213C30.1961 17.3025 29.965 17.3999 29.8765 17.4885C29.1677 18.5516 27.5648 20.9167 26.8208 21.8733C25.8912 23.069 26.6877 25.0612 25.4927 24.1321C24.5361 23.3881 25.0941 20.6334 25.4927 19.3489C27.3971 14.6542 31.3116 4.73258 31.7368 2.60669C32.1618 0.481141 30.4966 0.658643 29.6108 1.01294C28.8671 0.694122 29.4779 0.259484 29.8765 0.0822754ZM28.5483 16.1594C28.2826 16.2923 27.3522 18.9503 27.0864 19.3489C26.8743 19.6674 26.9979 19.8358 27.0864 19.8801C27.7951 18.9943 29.2654 17.1424 29.478 16.8235C29.6902 16.5047 28.9469 16.248 28.5483 16.1594ZM36.52 11.1106C36.52 10.9777 36.4404 10.7652 36.1216 10.9778C35.8024 11.1907 33.1539 13.7241 31.8696 14.9641C31.7811 15.097 31.6842 15.3624 32.0024 15.3625C32.9325 15.6726 35.1382 15.256 36.52 11.1106Z" fill="#F8FAFC"/>
<path d="M54.0589 10.9778C54.3246 9.91482 52.9959 9.78196 52.8631 9.78196C52.5442 9.35678 53.5274 9.25049 54.0589 9.25048C58.7093 8.98475 54.7232 17.4883 54.5903 17.754C54.484 17.9666 54.6346 18.0198 54.7232 18.0198C56.1405 15.9382 59.1344 11.7484 59.7722 11.6421C60.41 11.5358 60.3037 11.9521 60.1708 12.1736C57.6463 14.5652 54.0589 20.6771 53.7931 21.7401C53.5274 22.803 53.3945 23.7331 52.0659 23.7331C51.0029 23.7331 51.0029 22.9359 51.1358 22.5373C52.0216 19.0384 53.8463 11.8281 54.0589 10.9778Z" fill="#F8FAFC"/>
<path d="M59.6394 23.3345C57.6463 19.0163 59.6393 12.7051 61.2338 10.7121C61.4371 10.4463 61.7652 10.3135 62.8282 10.3135C63.6785 10.3135 63.8025 10.7564 63.7582 10.9778C62.031 13.3694 59.9051 21.0758 60.7023 22.5373C61.4995 23.9989 61.7652 23.0688 62.4296 22.8031C62.961 22.5905 62.9167 23.0688 62.8282 23.3345C61.7652 24.9289 60.0686 24.2646 59.6394 23.3345Z" fill="#F8FAFC"/>
<path d="M67.0799 11.9081C67.6113 10.6325 68.0099 10.4908 68.1428 10.5794C70.2687 10.5794 70.3573 11.1108 70.1358 11.3766C66.8141 16.6913 66.2826 22.006 66.5484 23.069C66.761 23.9193 68.0542 23.069 68.6743 22.5375C69.0729 22.006 69.7638 22.006 68.8071 23.069C67.8505 24.1319 66.5484 24.3091 66.0169 24.2648C62.2966 23.4676 66.4155 13.5025 67.0799 11.9081Z" fill="#F8FAFC"/>
<path d="M69.6044 7.92188C69.0729 7.92188 68.9401 7.65614 68.9401 7.39041C71.8632 4.73305 72.2618 4.06871 72.5275 4.33444C72.3946 8.18761 70.4016 7.92188 69.6044 7.92188Z" fill="#F8FAFC"/>
</svg>
