<svg width="46" height="40" viewBox="0 0 46 40" fill="none" xmlns="http://www.w3.org/2000/svg">
<path d="M25 17.5V3C25 1.34315 26.3431 0 28 0H42.5C44.1569 0 45.5 1.34315 45.5 3V20.5C45.5 29.0501 36.9387 35.2571 30.3738 38.3987C28.5178 39.2868 26.7795 37.8629 27.6427 35.9951C29.5158 31.9421 33.1395 26.97 34.2231 23.1047C34.6302 21.6523 33.3705 20.5 31.8621 20.5H28C26.3431 20.5 25 19.1569 25 17.5Z" fill="#4A148C"/>
<path d="M0 17.5V3C0 1.34315 1.34315 0 3 0H17.5C19.1569 0 20.5 1.34315 20.5 3V20.5C20.5 29.0501 11.9387 35.2571 5.37381 38.3987C3.51776 39.2868 1.77949 37.8629 2.6427 35.9951C4.51577 31.9421 8.13947 26.97 9.22305 23.1047C9.63023 21.6523 8.37054 20.5 6.86211 20.5H3C1.34315 20.5 0 19.1569 0 17.5Z" fill="#4A148C"/>
</svg>
