<svg width="84" height="28" viewBox="0 0 84 28" fill="none" xmlns="http://www.w3.org/2000/svg">
<path d="M12.3383 10.446C13.6138 10.9775 13.7555 12.3948 13.667 12.9705C13.5607 13.0768 13.2684 12.7491 13.1355 12.5719C9.73407 8.32016 4.45478 16.0265 2.24031 20.4111C1.886 21.4631 1.70884 23.2547 3.83473 22.0056C6.49209 20.4442 10.0795 12.9705 11.4082 13.502C12.4711 13.9272 12.6483 14.3878 12.604 14.565C9.41518 21.0489 10.921 23.3785 12.0725 23.7328C8.45853 24.9021 8.61797 19.7911 9.14945 17.0894C7.55503 20.2783 4.23333 23.3342 3.56899 23.7328C2.90465 24.1314 -2.2772 24.2643 1.17737 17.8867C3.94102 12.7845 7.37787 10.6232 8.75084 10.1803C9.81379 9.83742 11.0627 9.91458 12.3383 10.446Z" fill="#4A148C"/>
<path d="M49.2755 10.446C50.5511 10.9775 50.6928 12.3948 50.6042 12.9705C50.4979 13.0768 50.2056 12.7491 50.0727 12.5719C46.6713 8.32016 41.392 16.0265 39.1776 20.4111C38.8233 21.4631 38.6461 23.2547 40.772 22.0056C43.4293 20.4442 47.0168 12.9705 48.3455 13.502C49.4084 13.9272 49.5856 14.3878 49.5413 14.565C46.3524 21.0489 47.8583 23.3785 49.0098 23.7328C45.3958 24.9021 45.5552 19.7911 46.0867 17.0894C44.4923 20.2783 41.1706 23.3342 40.5062 23.7328C39.8419 24.1314 34.6601 24.2643 38.1146 17.8867C40.8783 12.7845 44.3151 10.6232 45.6881 10.1803C46.751 9.83742 48 9.91458 49.2755 10.446Z" fill="#4A148C"/>
<path d="M82.2268 10.446C83.5024 10.9775 83.6441 12.3948 83.5555 12.9705C83.4492 13.0768 83.1569 12.7491 83.024 12.5719C79.6226 8.32016 74.3433 16.0265 72.1289 20.4111C71.7745 21.4631 71.5974 23.2547 73.7233 22.0056C76.3806 20.4442 79.9681 12.9705 81.2968 13.502C82.3597 13.9272 82.5369 14.3878 82.4926 14.565C79.3037 21.0489 80.8096 23.3785 81.9611 23.7328C78.3471 24.9021 78.5065 19.7911 79.038 17.0894C77.4436 20.2783 74.1219 23.3342 73.4575 23.7328C72.7932 24.1314 67.6114 24.2643 71.0659 17.8867C73.8296 12.7845 77.2664 10.6232 78.6394 10.1803C79.7023 9.83742 80.9513 9.91458 82.2268 10.446Z" fill="#4A148C"/>
<path d="M16.9887 12.9706C17.6264 10.7384 16.7229 9.82606 16.1914 9.6489C15.673 9.22373 16.5069 9.11743 16.9887 9.11743C20.3901 9.22373 19.4689 13.5907 18.5831 15.7608C20.3104 13.8564 24.0838 9.99436 25.3593 9.78177C26.6349 9.56918 26.7766 10.1361 26.688 10.4461C24.0307 13.2363 24.5621 15.2294 25.2265 15.3622C25.7579 15.4685 25.7137 15.8494 25.6251 16.0266C22.9677 16.558 22.6577 13.945 22.8348 12.572C18.7957 14.9105 16.9001 20.0126 16.4572 22.2714C16.3686 22.7585 15.9523 23.7063 14.9956 23.6C14.039 23.4937 14.1541 22.67 14.3313 22.2714L16.9887 12.9706Z" fill="#4A148C"/>
<path d="M29.8773 0.0822754C34.1285 -0.448965 34.4826 1.72081 34.1283 2.87231L29.3451 14.6975C29.5223 14.4761 29.9834 14.0865 30.4086 14.2991C30.8336 14.5115 31.2053 14.4762 31.3383 14.4319C32.7998 12.9703 36.0157 9.86149 37.1849 9.11743C38.354 8.37354 38.8229 8.80742 38.9115 9.11743C39.1772 14.8307 33.9957 16.5578 33.4642 16.6907C33.0392 16.7969 33.1986 17.0005 33.3314 17.0891C35.1915 18.8163 34.6597 25.7248 34.2611 26.6555C33.9422 27.3996 33.6856 26.9655 33.597 26.6555C33.8625 21.4758 30.6764 18.0221 30.4086 17.6213C30.1963 17.303 29.9662 17.3991 29.8773 17.4875C29.1687 18.5505 27.5648 20.9156 26.8207 21.8723C25.8906 23.0681 26.6882 25.061 25.4926 24.1311C24.5359 23.387 25.0939 20.6323 25.4926 19.3479C27.397 14.6531 31.3115 4.73253 31.7367 2.60669C32.1619 0.480828 30.4965 0.65765 29.6107 1.01196C28.8674 0.6931 29.4788 0.259395 29.8773 0.0822754ZM28.5482 16.1594C28.2825 16.2924 27.352 18.9493 27.0863 19.3479C26.8741 19.6662 26.9978 19.8345 27.0863 19.8792C27.7949 18.9934 29.2652 17.1425 29.4779 16.8235C29.6905 16.5046 28.9468 16.248 28.5482 16.1594ZM36.5199 11.1106C36.5199 10.9777 36.4403 10.7652 36.1215 10.9778C35.8013 11.1916 33.1535 13.7234 31.8695 14.9631C31.781 15.0959 31.684 15.3623 32.0023 15.3625C32.9324 15.6726 35.1381 15.2558 36.5199 11.1106Z" fill="#4A148C"/>
<path d="M54.0589 10.9775C54.3246 9.91458 52.9959 9.78171 52.8631 9.78171C52.5442 9.35654 53.5274 9.25024 54.0589 9.25024C58.7093 8.9845 54.7232 17.4881 54.5903 17.7538C54.484 17.9664 54.6346 18.0195 54.7232 18.0195C56.1405 15.9379 59.1344 11.7482 59.7722 11.6419C60.41 11.5356 60.3037 11.9519 60.1708 12.1733C57.6463 14.565 54.0589 20.6769 53.7931 21.7398C53.5274 22.8028 53.3945 23.7328 52.0659 23.7328C51.0029 23.7328 51.0029 22.9356 51.1358 22.537C52.0216 19.0382 53.8463 11.8279 54.0589 10.9775Z" fill="#4A148C"/>
<path d="M59.6394 23.3343C57.6463 19.0161 59.6393 12.7049 61.2338 10.7118C61.4371 10.4461 61.7652 10.3132 62.8282 10.3132C63.6785 10.3132 63.8025 10.7561 63.7582 10.9776C62.031 13.3692 59.9051 21.0755 60.7023 22.5371C61.4995 23.9986 61.7652 23.0686 62.4296 22.8028C62.961 22.5902 62.9167 23.0686 62.8282 23.3343C61.7652 24.9287 60.0686 24.2644 59.6394 23.3343Z" fill="#4A148C"/>
<path d="M67.0799 11.9076C67.6113 10.632 68.0099 10.4903 68.1428 10.5789C70.2687 10.5789 70.3573 11.1104 70.1358 11.3761C66.8141 16.6908 66.2826 22.0055 66.5484 23.0685C66.761 23.9188 68.0542 23.0685 68.6743 22.537C69.0729 22.0055 69.7638 22.0055 68.8071 23.0685C67.8505 24.1314 66.5484 24.3086 66.0169 24.2643C62.2966 23.4671 66.4155 13.502 67.0799 11.9076Z" fill="#4A148C"/>
<path d="M69.6044 7.92164C69.0729 7.92164 68.9401 7.6559 68.9401 7.39016C71.8632 4.73281 72.2618 4.06847 72.5275 4.3342C72.3946 8.18737 70.4016 7.92164 69.6044 7.92164Z" fill="#4A148C"/>
</svg>
